<svg xmlns="http://www.w3.org/2000/svg" width="200" height="200" viewBox="0 0 200 200" fill="none">
<path fill-rule="evenodd" clip-rule="evenodd" d="M48.8155 98.0015C49.933 89.6207 59.5243 87.0599 64.1803 86.8271V33.7487C64.1803 21.8759 78.8468 14.8919 106.783 16.9871C129.132 18.6632 130.528 56.3303 128.433 74.9543C135.184 74.7215 148.687 76.7701 148.687 86.8271V153.175C152.179 157.365 156.369 166.305 145.195 168.54C134.02 170.775 92.5819 177.852 73.2596 181.111C66.2755 182.275 52.4472 182.089 53.0059 172.032C53.3324 166.155 52.1326 151.883 50.9049 137.28C49.5064 120.645 48.0717 103.58 48.8155 98.0015ZM78.8468 42.1294C75.4944 48.8341 77.45 74.7214 78.8468 86.827L112.37 80.5414C112.137 75.4198 111.811 63.0814 112.37 54.7006C113.068 44.2246 106.783 33.7487 97.0052 33.7487C87.2276 33.7487 83.0372 33.7487 78.8468 42.1294ZM100.497 150.381V130.128C99.9983 129.312 98.8385 128.694 97.6224 128.046C95.9573 127.159 94.1865 126.215 93.8624 124.629C93.2078 121.428 97.1876 116.364 100.497 115.461C108.18 113.366 110.275 117.557 110.275 121.747C110.275 125.099 106.55 128.731 104.688 130.128V150.381H100.497Z" fill="white"/>
<g style="mix-blend-mode:multiply">
<path fill-rule="evenodd" clip-rule="evenodd" d="M89.713 31.9129C89.0702 31.9164 88.4195 31.9199 87.7603 31.9199C86.1933 31.9199 84.735 32.5587 83.1485 35.3846C81.4244 38.4557 80.1703 43.215 79.453 49.2454C78.0335 61.1776 78.9774 75.5338 79.813 84.6056C80.1412 88.1693 77.5184 91.3244 73.9546 91.6526C70.3909 91.9809 67.2359 89.358 66.9076 85.7943C66.0632 76.6261 64.9911 61.1022 66.5837 47.7145C67.3723 41.0849 68.8812 34.3241 71.8476 29.0402C74.9517 23.5111 80.1114 18.9599 87.7603 18.9599C88.267 18.9599 88.816 18.9553 89.4004 18.9503C93.1483 18.9186 98.3567 18.8745 103.255 19.9646C109.251 21.2988 115.597 24.4756 119.508 31.7222C123.532 39.1779 125.06 49.6043 125.849 58.5096C126.254 63.0811 126.483 67.5588 126.681 71.4223L126.684 71.4818C126.887 75.4637 127.052 78.6101 127.315 80.8379C127.736 84.3918 125.196 87.6141 121.642 88.035C118.088 88.4558 114.866 85.9159 114.445 82.362C114.124 79.6487 113.941 76.0683 113.75 72.3347L113.74 72.1435C113.541 68.2361 113.322 63.9709 112.94 59.6534C112.149 50.7338 110.731 42.7474 108.103 37.8776C106.501 34.9108 104.001 33.4076 100.44 32.6151C97.1049 31.8729 93.5523 31.8921 89.713 31.9129Z" fill="#03EBC3"/>
</g>
<path d="M126.67 31.6536L126.662 31.6137C126.654 31.6137 126.646 31.6057 126.63 31.6057V31.6457C126.646 31.6457 126.662 31.6536 126.67 31.6536ZM151.994 160.441C151.874 159.299 151.866 158.14 151.786 156.989C151.625 154.568 151.834 152.123 151.529 149.701C151.457 149.102 151.577 148.494 151.345 147.879C151.208 147.512 151.377 147.032 151.417 146.601C151.441 146.353 151.585 146.041 151.489 145.873C151.208 145.418 151.321 144.946 151.313 144.491C151.297 141.75 151.353 139.009 151.297 136.26C151.24 133.503 151.337 130.746 151.144 127.973C150.864 124.017 150.944 120.045 150.872 116.074C150.864 115.562 150.888 115.051 150.864 114.539C150.84 114.044 150.84 113.557 150.695 113.045C150.471 112.262 150.503 111.415 150.431 110.592C150.415 110.408 150.479 110.208 150.415 110.048C150.03 109.097 150.262 108.106 150.214 107.139C150.206 106.908 150.327 106.66 150.391 106.404C150.335 106.268 150.222 106.109 150.214 105.941C150.126 104.534 150.014 103.128 149.99 101.721C149.95 99.6357 150.006 97.5499 149.974 95.4722C149.958 94.4653 149.926 93.4424 149.733 92.4595C149.485 91.1489 149.517 89.8143 149.316 88.5118C149.308 88.4398 149.268 88.3759 149.244 88.312C148.98 88.3999 148.723 88.4798 148.523 88.5437C148.363 89.0072 148.218 89.4068 148.09 89.8144C147.777 90.7893 147.409 91.7562 147.176 92.7552C146.944 93.7541 146.791 94.7849 146.695 95.8158C146.631 96.4471 146.735 97.0944 146.775 97.9175C146.759 98.0774 146.727 98.429 146.671 98.7726C146.607 99.1562 146.479 99.5398 146.463 99.9234C146.431 100.691 146.423 101.458 146.463 102.225C146.503 102.976 146.479 103.767 146.719 104.462C146.92 105.038 146.831 105.501 146.647 105.965C146.871 106.372 146.92 106.708 146.799 107.139C146.663 107.651 146.559 108.274 146.735 108.738C147.008 109.425 146.831 110 146.647 110.576C146.968 111.199 146.944 111.79 146.775 112.406C146.711 112.638 146.607 112.957 146.711 113.125C146.96 113.549 146.871 113.98 146.879 114.404C146.895 116.01 146.887 117.624 146.887 119.23C146.887 119.966 146.855 120.693 146.895 121.42C146.928 122.115 146.767 122.802 146.863 123.514C146.96 124.217 146.944 124.96 146.663 125.647C146.887 126.854 146.27 128.053 146.647 129.267C146.711 129.467 146.535 129.739 146.471 129.963C146.535 130.13 146.655 130.298 146.655 130.458C146.647 130.826 146.831 131.161 146.703 131.569C146.607 131.865 146.895 132.256 146.871 132.6C146.815 133.527 146.735 134.462 146.567 135.373C146.398 136.276 146.406 137.155 146.551 138.058C146.623 138.513 146.743 139.025 146.607 139.44C146.479 139.84 146.471 140.216 146.447 140.607C146.398 141.326 146.551 142.046 146.246 142.749C146.142 142.996 146.142 143.364 146.246 143.612C146.463 144.115 146.374 144.611 146.374 145.122C146.374 145.666 146.422 146.209 146.447 146.752C146.551 148.926 146.35 151.1 146.631 153.281C146.887 155.287 146.823 157.333 146.879 159.363C146.895 159.874 147.056 160.386 146.903 160.905C146.895 160.945 147.008 161.017 147.088 161.081C147.184 161.976 146.655 162.711 146.406 163.518C146.326 163.774 145.917 163.91 145.701 164.141C144.771 165.156 143.689 165.916 142.222 166.227C142.037 166.443 141.805 166.723 141.556 167.002C140.771 167.082 140.025 167.202 139.272 167.218C138.502 167.226 137.741 167.825 137.027 167.25C135.68 167.698 134.35 167.714 133.035 167.658C132.722 167.817 132.426 167.961 132.137 168.105C131.632 168.129 131.143 168.321 130.654 168.313C129.235 168.297 127.968 169.152 126.605 168.992C126.285 169.16 126.028 169.288 125.708 169.456C125.443 169.456 125.098 169.384 124.794 169.472C123.784 169.743 122.733 169.767 121.707 169.855C120.208 169.991 118.709 169.839 117.194 170.175C115.511 170.543 113.867 171.078 112.152 171.302C111.414 171.398 110.701 171.677 109.931 171.637C109.498 171.613 109.057 171.645 108.632 171.717C108.183 171.797 107.742 171.989 107.294 172.053C106.837 172.117 106.372 172.053 105.915 172.261C105.538 172.428 102.123 173.164 100.816 172.916C100.712 173.092 100.247 173.148 100.183 173.196C99.782 173.475 99.3331 173.395 98.9082 173.371C98.1306 173.323 97.361 173.715 96.5834 173.387C96.5273 173.363 95.5893 173.643 95.2125 173.579C94.5792 173.467 93.97 173.971 93.3447 173.619C92.2384 173.883 91.1401 174.155 90.0338 174.402C89.4085 174.546 86.9154 175.145 86.25 175.13C85.1277 175.114 84.0855 175.545 82.9953 175.729C81.6324 175.961 80.3578 176.56 78.9549 176.712C78.3937 176.776 77.7765 176.72 77.2554 176.928C76.2052 177.351 73.5758 177.966 73.3273 178.078C72.4935 178.454 72.3412 178.406 71.4754 178.63C71.0265 178.742 66.8258 179.685 66.8258 180.915C66.8258 182.553 69.3671 182.585 70.0004 182.458C70.5936 182.338 71.9644 182.689 72.5096 182.37C72.5416 182.354 74.1049 182.154 74.145 182.154C74.8985 182.082 75.6841 182.122 76.3896 181.898C76.9107 181.73 77.3837 181.914 77.8967 181.786C79.1072 181.491 80.3658 181.371 81.6485 181.171C81.6805 181.115 82.4101 181.019 82.5463 180.987C82.7548 180.947 82.9632 180.835 83.1636 180.851C84.3741 180.947 85.4724 180.348 86.6749 180.332C87.5888 180.324 89.4246 179.932 89.4326 179.964C89.7212 179.82 90.0098 179.677 90.0739 179.645C90.9878 179.509 91.6612 179.421 92.3346 179.309C93.0721 179.181 93.8096 179.045 94.5311 178.869C95.0201 178.75 95.5011 178.59 96.0142 178.654C96.5032 178.718 96.9762 178.366 97.4732 178.606C97.5053 178.622 97.5855 178.518 97.6496 178.494C98.3711 178.19 99.1246 178.198 99.8862 178.214C100.287 178.222 100.736 178.326 101.089 178.19C102.163 177.775 103.277 177.751 104.384 177.791C104.688 177.639 106.877 177.519 107.574 176.968C107.646 176.912 107.831 176.88 107.879 176.928C108.223 177.247 108.544 176.864 108.881 176.904C109.282 176.952 109.691 176.912 110.107 176.912C110.701 176.536 111.39 176.536 112.071 176.464C112.849 176.384 113.619 176.208 114.396 176.088C115.35 175.937 116.24 175.433 116.921 175.553C117.867 175.297 118.525 174.954 119.166 174.986C119.952 175.026 120.713 174.674 121.491 174.93C122.18 174.578 122.918 174.722 123.639 174.722C124.842 174.73 125.964 174.37 127.127 174.083C127.255 174.147 127.415 174.226 127.431 174.226C127.944 174.067 128.313 173.955 128.69 173.827C129.059 173.707 129.443 173.595 129.796 173.435C130.325 173.196 130.862 173.172 131.423 173.299C131.496 173.18 131.56 173.06 131.584 173.02C132.129 172.94 132.594 172.804 133.051 172.828C133.764 172.876 134.43 172.548 135.087 172.58C135.592 172.604 136.009 172.333 136.538 172.436C137.043 172.532 137.636 172.237 138.173 172.061C138.63 171.909 139.071 171.805 139.552 171.853C141.091 172.005 142.39 171.246 143.729 170.702C144.787 170.271 145.765 169.647 146.839 169.264C147.376 169.072 147.825 168.8 148.194 168.441C149.076 167.578 149.902 166.659 150.703 165.724C150.976 165.404 151.216 164.981 151.256 164.581C151.297 164.141 151.521 163.854 151.786 163.502V161.584C151.922 162 151.986 162.192 152.074 162.479C152.122 162.272 152.162 162.176 152.17 162.072C152.218 161.488 152.042 160.969 151.994 160.441ZM147.136 161.057V160.633C147.409 160.881 147.352 160.993 147.136 161.057ZM150.944 131.297C150.968 131.297 150.984 131.297 151.008 131.297L150.968 131.417C150.952 131.393 150.92 131.377 150.912 131.353C150.904 131.345 150.928 131.321 150.944 131.297ZM151.024 131.721V132.288C150.992 132.288 150.952 132.288 150.92 132.288V131.721H151.024ZM151.016 136.46C150.984 136.46 150.952 136.46 150.928 136.46V136.1C150.96 136.1 150.992 136.1 151.016 136.1V136.46ZM150.912 135.309C150.904 135.293 150.928 135.269 150.944 135.253C150.968 135.253 150.984 135.253 151.008 135.253C150.992 135.293 150.984 135.333 150.968 135.373C150.944 135.349 150.92 135.333 150.912 135.309ZM150.904 133.775V133.071C150.944 133.071 150.984 133.071 151.032 133.063C151.048 133.303 151.056 133.543 151.072 133.783C151.016 133.783 150.96 133.783 150.904 133.775ZM71.2109 101.522C71.4113 101.538 71.6197 101.538 71.8282 101.522C72.3332 101.49 72.8463 101.378 73.3513 101.418C73.8644 101.458 74.3694 101.641 74.6259 101.697C75.4917 101.57 76.1331 101.506 76.7584 101.37C77.1031 101.298 77.4157 101.106 77.7524 100.97C78.041 100.85 78.2975 101.162 78.6503 100.994C78.9469 100.85 79.3718 100.97 79.7325 100.954C79.949 100.946 80.1734 100.938 80.3738 100.874C81.1434 100.643 81.921 100.563 82.7147 100.499C83.3079 100.451 83.9573 100.563 84.3982 100.195C84.791 100.235 85.1036 100.283 85.4163 100.291C86.0736 100.307 86.755 100.395 87.3884 100.267C87.9976 100.147 88.6069 100.195 89.2081 100.115C90.0258 100.003 90.8676 100.059 91.6772 99.8514C91.9819 99.7715 92.3025 99.7076 92.6152 99.6437C93.5531 99.4519 94.5071 99.284 95.437 99.0603C96.1425 98.8925 96.8479 98.7486 97.5774 98.7646C98.0905 98.7726 98.6276 98.8685 99.1086 98.7406C100.375 98.413 101.658 98.2771 102.925 98.3331C103.157 98.1573 103.357 98.0054 103.51 97.8776C104.167 97.8776 104.808 98.0214 105.329 97.8456C106.428 97.478 107.574 97.454 108.688 97.2223C109.001 97.1584 109.314 97.0065 109.626 97.0145C110.789 97.0545 111.911 96.7828 113.033 96.559C113.907 96.3832 114.797 96.2553 115.639 95.9916C116.304 95.7839 116.954 95.632 117.402 95.672C119.815 94.9448 122.092 94.6811 124.313 94.2016C124.409 94.1776 124.513 94.2096 124.617 94.2255C124.682 94.2415 124.738 94.2815 124.81 94.3135C124.858 94.2176 124.898 94.1217 124.938 94.0497C125.427 93.8899 125.892 93.7381 126.269 93.6182C126.622 93.6502 126.918 93.7541 127.175 93.6901C127.728 93.5703 128.281 93.4104 128.794 93.1787C130.646 92.1398 126.405 91.5085 126.405 91.5085C125.7 91.6683 125.018 91.2368 124.321 91.4606C123.703 90.9811 123.158 91.5964 122.565 91.5724C122.252 91.5565 121.932 91.7323 121.619 91.7163C121.026 91.6763 120.481 91.8361 119.928 91.996C119.655 92.0759 119.375 92.1558 119.094 92.1638C118.477 92.1798 117.883 92.2197 117.274 92.3636C116.513 92.5474 115.695 92.5154 114.917 92.6193C114.292 92.6992 113.683 92.875 113.057 92.9629C112.152 93.0908 111.246 93.1547 110.34 93.2746C109.699 93.3545 109.065 93.4744 108.408 93.4824C108.119 93.6262 107.831 93.77 107.702 93.834C106.756 93.9698 105.971 94.0817 105.193 94.1936C105.129 94.2016 105.065 94.2975 105.009 94.2975C103.742 94.2735 102.524 94.6491 101.281 94.769C100.455 94.8489 99.6537 94.9687 98.8521 95.1685C98.6757 95.2085 98.4993 95.2325 98.315 95.2325C97.5213 95.2325 96.7197 95.1765 95.9902 95.608C95.902 95.656 95.7817 95.672 95.6775 95.672C94.443 95.6959 93.2244 95.664 91.9899 95.8797C89.0237 96.3912 86.0175 95.9677 82.9872 96.1515C82.9392 96.2314 82.867 96.3512 82.8029 96.4551C82.5544 96.4152 82.3139 96.3193 82.0894 96.3512C81.3118 96.4711 80.5262 96.567 79.7886 96.7908C78.9309 97.0465 78.0651 96.9666 77.0951 97.0065C76.9668 97.1024 76.7744 97.2543 76.7423 97.2782C75.4196 97.6219 74.2893 97.9255 72.9826 98.2691C72.4615 98.3411 71.74 98.397 71.0425 98.5488C70.4734 98.6767 69.9042 98.5409 69.319 98.7167C68.7498 98.8845 68.0844 98.7566 67.4591 98.7566C66.8338 98.7566 66.2085 98.7646 65.5913 98.7566C64.6132 98.7326 63.6753 98.9564 62.7213 99.1402C62.1201 99.2521 61.4868 99.1642 60.9577 99.1642C60.3324 99.5797 59.8033 99.9393 59.4506 100.171C58.2801 100.283 57.3823 99.9633 56.5485 99.6037C55.4823 99.1482 54.336 98.8605 53.3259 98.2851C52.7567 97.9575 52.3158 97.4221 51.7867 97.0065C51.2977 96.527 51.3859 95.8957 51.3939 95.1845C51.8188 94.4173 52.2917 93.5783 52.6926 92.859C53.2217 92.4914 53.6626 92.1958 54.2398 91.7882C56.0996 90.9731 58.1278 90.0861 60.3564 89.1031H61.126C61.2944 88.9673 61.4627 88.8314 61.6551 88.6796C61.9277 88.6636 62.2163 88.6556 62.4648 88.6396C62.6331 88.4079 62.7855 88.2081 62.9538 87.9764C63.2023 88.0882 63.4188 88.1921 63.6833 88.312V88.9273C64.1082 89.4787 64.3968 89.8623 64.7896 90.3657C65.1664 90.4696 65.6794 90.6854 65.96 91.1649C67.5473 91.1729 68.4692 90.3018 69.0464 88.9433C68.6857 88.5278 68.2447 88.2001 68.5414 87.6008C68.5895 87.4969 68.5414 87.3051 68.4852 87.1852C68.0363 86.2982 68.0844 85.3073 67.8519 84.3883C67.6034 83.3973 67.9321 82.3585 67.4752 81.4155C67.4431 81.3516 67.4671 81.2717 67.4671 81.1997C67.4912 79.2419 67.0743 77.292 67.2587 75.3341C67.3389 74.519 67.1304 73.7438 66.9541 72.9927C66.8178 72.4173 66.8018 71.9538 67.0022 71.5942C66.93 71.0268 66.8338 70.6033 66.8258 70.1877C66.8018 69.1249 66.8258 68.07 66.8178 67.0072C66.8178 66.3279 66.8418 65.6486 66.6174 64.9694C66.4971 64.6098 66.2406 64.1783 66.5773 63.7787C66.2406 63.4031 66.4009 62.9396 66.3849 62.5161C66.3528 61.9087 66.2246 61.2854 66.2406 60.71C66.2566 60.1267 66.1364 59.6392 65.968 59.1198C65.8879 58.9999 65.8879 58.8401 65.9039 58.7042C66.0562 57.5055 65.8157 56.3148 65.6394 55.1481C65.479 54.1012 65.5111 53.0623 65.455 52.0155C65.3107 51.7278 65.1664 51.4401 65.1022 51.3123V48.4354C65.0942 48.4194 65.0141 48.1637 64.9339 47.908C64.8377 47.9559 64.7736 47.9879 64.6373 48.0518C64.485 47.1408 64.3407 46.2458 64.1723 45.2229C64.2044 45.151 64.2846 44.9592 64.3808 44.7194C63.8196 43.3449 64.2765 42.0184 64.7094 40.4521C64.7896 40.9316 64.8297 41.1953 64.9018 41.6108C65.3427 40.1724 65.2225 38.7499 65.9119 37.5193V36.3605C66.2326 35.8411 66.6174 35.4655 66.7136 35.018C66.906 34.099 67.2427 33.2279 67.6916 32.4368C68.4532 31.0863 69.0705 29.6478 70.1687 28.4891C70.762 27.8578 71.2189 27.0746 71.8602 26.4593C72.4134 25.9239 72.9425 25.3805 73.6399 24.9969C74.1049 24.7412 74.4095 24.2137 74.7863 23.8062C76.3014 23.5425 77.6883 22.9911 78.9549 21.9922C79.019 22.0241 79.1393 22.096 79.3157 22.1999C79.957 21.8803 80.6384 21.5446 81.3198 21.209C81.3038 21.1691 81.2877 21.1291 81.2717 21.0971H82.4902C82.5704 20.9693 82.6425 20.8574 82.7708 20.6496C83.364 20.6496 84.0294 20.7375 84.6627 20.6256C85.4323 20.4898 86.1618 20.1701 86.9234 19.9704C87.7812 19.7466 88.647 19.5628 89.5128 19.363C90.0258 19.7706 90.5148 19.2032 91.0519 19.3231C91.565 19.4349 92.1101 19.3151 92.6472 19.1632C93.1603 19.0194 93.7375 19.1473 94.2906 19.1233C94.6754 19.1073 95.0602 19.0434 95.5653 18.9874C95.7016 19.0594 95.9581 19.1872 96.2627 19.347C97.353 19.2112 98.4833 19.7946 99.6537 19.371C99.9584 19.2591 100.359 19.427 100.712 19.4749C100.888 19.4989 101.065 19.5548 101.241 19.5628C102.676 19.6507 104.087 19.8585 105.474 20.2101C105.883 20.314 106.356 20.0742 106.74 20.4019C107.093 20.0742 107.181 20.5937 107.414 20.6097C107.518 20.5537 107.614 20.4978 107.694 20.4498C107.775 20.4738 107.847 20.4898 107.911 20.5218C108.175 20.6416 108.424 20.7855 108.688 20.8734C110.757 21.5127 112.689 22.4237 114.436 23.7023C115.046 24.1498 115.623 24.6293 116.232 25.0768C117.499 26.0038 118.364 27.2984 119.383 28.4571C119.687 28.8008 119.888 29.2323 120.128 29.6318C120.577 30.3591 121.018 31.0943 121.451 31.8215C121.555 31.7735 121.643 31.7416 121.691 31.7176C122.028 32.253 122.365 32.7644 122.661 33.2919C122.894 33.7154 123.231 34.083 123.182 34.6664C123.15 35.05 123.455 35.4575 123.583 35.8651C123.856 36.6962 124.112 37.5352 124.369 38.3743C124.297 38.4063 124.201 38.4542 124.072 38.5182C124.201 38.686 124.321 38.8458 124.457 39.0376V45.7103C124.609 45.9021 124.762 46.1019 124.93 46.3177C124.85 46.4535 124.778 46.5734 124.706 46.7093C124.81 47.0369 124.922 47.3725 125.034 47.7321C124.994 47.9719 124.922 48.2436 124.914 48.5153C124.898 49.3544 124.794 50.2174 124.93 51.0326C125.235 52.8785 125.074 54.7245 125.13 56.5705C125.138 56.7144 125.154 56.8582 125.179 56.9941C125.275 57.4895 125.595 57.9211 125.419 58.4964C125.283 58.936 125.644 59.4314 125.379 59.9269C125.331 60.0148 125.491 60.2226 125.571 60.3744C125.635 60.4064 125.724 60.4383 125.724 60.4703C125.724 61.3733 125.716 62.2763 125.708 63.1793C125.708 63.2433 125.627 63.2992 125.587 63.3631C125.652 63.6029 125.812 63.8586 125.772 64.0664C125.571 65.0413 126.028 66.0402 125.66 66.9992C125.635 67.0711 125.724 67.175 125.74 67.2709C125.892 68.2139 126.261 69.1488 125.844 70.1158C126.181 70.803 125.956 71.5382 126.004 72.2495C126.02 72.5212 125.916 72.8009 125.852 73.1685C126.445 74.6708 125.515 76.2771 125.852 78.0032C125.9 78.0352 126.06 78.1071 126.157 78.235C126.269 78.3708 126.325 78.5466 126.437 78.7624C126.381 78.9062 126.301 79.098 126.205 79.3457C126.341 79.6334 126.485 79.9611 126.63 80.2807V81.4555C126.493 81.2637 126.429 81.1598 126.317 80.9999C126.133 81.5194 126.301 82.0148 126.189 82.5103C126.341 82.7101 126.493 82.9099 126.662 83.1256V84.628C127.495 84.6679 128.321 84.7079 129.139 84.7399C129.347 84.5401 129.532 84.3723 129.588 84.3163C130.053 83.0937 130.237 81.9749 130.285 80.5844C130.109 80.2248 130.061 79.6254 130.542 79.0501C130.59 79.154 130.638 79.2499 130.71 79.4017H132.065C132.482 79.0181 133.123 79.0421 133.724 79.0341C134.526 79.0181 135.279 78.8503 136.049 78.6425C136.586 78.4987 137.179 78.4987 137.757 78.7224C138.286 78.9222 138.863 78.9861 139.648 79.1619C139.801 79.2498 140.17 79.4656 140.546 79.6734C141.091 79.9771 141.773 80.041 142.134 80.6563C142.182 80.7442 142.398 80.7202 142.526 80.7762C143.112 81.0319 143.713 81.2637 144.282 81.5673C144.474 81.6712 144.579 81.9509 144.723 82.1587C144.859 82.3425 144.988 82.5343 145.156 82.766V83.2055C143.496 85.1874 141.284 86.1863 138.727 87.0334C138.606 87.1852 138.358 87.5049 138.23 87.6647C137.572 87.7926 137.099 87.7366 136.65 87.9923C136.121 88.296 135.568 88.5198 135.079 88.9193C134.678 89.239 134.117 89.3509 133.628 89.5506C133.371 89.6545 132.385 92.1638 134.141 92.0839C134.205 92.0839 135.031 92.1079 135.127 92.0279C135.336 92.0999 136.386 91.6524 136.746 91.3886C136.819 91.5085 137.684 91.1649 138.173 91.2848C138.879 90.8372 139.801 90.9731 140.466 90.4297C140.618 90.3098 140.755 90.0541 140.891 90.0541C141.741 90.0781 142.326 89.3509 143.152 89.3029C143.352 89.2869 143.625 89.199 143.729 89.0472C144.026 88.6077 144.45 88.7275 144.819 88.6636C144.915 88.8234 146.575 87.4249 147.577 87.0254C148.122 86.2662 148.635 85.555 149.14 84.8438C148.956 84.7319 148.835 84.66 148.771 84.628C148.827 84.0926 148.86 83.5971 148.94 83.1017C149.012 82.6062 149.124 82.1267 149.204 81.6792C148.667 80.8961 148.242 80.1369 147.681 79.4976C147.104 78.8503 146.39 78.3229 145.773 77.7715C145.461 77.6915 145.14 77.6836 144.923 77.5317C144.202 76.9963 143.328 76.7885 142.542 76.4289C141.653 76.0214 140.618 75.9414 139.648 75.7097C139.528 75.6777 139.408 75.6218 139.296 75.5739C139.232 75.6937 139.184 75.7816 139.111 75.9095H137.316C137.26 75.7337 137.195 75.5339 137.131 75.3501C136.923 75.2542 136.738 75.1583 136.642 75.1183C136.265 75.1823 135.905 75.3661 135.728 75.2542C135.015 74.8147 134.406 75.3261 133.756 75.3581C133.58 75.3661 133.412 75.4939 133.243 75.4939C132.169 75.47 131.199 75.8056 130.269 76.333C130.165 76.0373 130.069 75.7417 129.997 75.5259C130.253 74.7587 130.221 74.0475 130.077 73.3363C129.876 72.3374 129.852 71.3385 130.173 70.2996C130.101 70.1158 130.013 69.884 129.932 69.6923C130.037 69.4046 130.117 69.1728 130.213 68.9171C130.061 68.7333 129.924 68.5735 129.804 68.4216C129.844 68.2538 129.908 68.094 129.908 67.9262C129.908 67.7663 129.804 67.6065 129.812 67.4467C129.836 67.0951 129.956 66.7355 129.94 66.3918C129.916 65.8245 129.772 65.2571 129.74 64.6897C129.636 62.9156 129.716 61.1495 129.572 59.3675C129.379 56.9541 129.163 54.5168 129.283 52.0794C129.347 50.7688 129.291 49.4503 129.291 48.1317C129.291 47.9159 129.339 47.6762 129.275 47.4764C128.818 46.006 128.826 44.4957 128.842 42.9773C128.842 42.7296 128.866 42.4419 128.762 42.2341C128.521 41.7387 128.602 41.2352 128.682 40.7398C128.706 40.5639 128.69 40.4441 128.674 40.2763C128.554 39.2054 128.473 38.1266 128.409 37.0478C128.385 36.6802 128.329 36.3525 128.209 36.0009C128.032 35.4975 127.984 34.962 127.872 34.3867C127.768 34.067 127.656 33.6914 127.519 33.3318C127.327 32.8124 127.119 32.293 126.894 31.7815C126.862 31.7176 126.75 31.6856 126.662 31.6536C126.726 32.1971 126.798 32.7405 126.862 33.2759C126.253 32.3569 125.844 31.3899 125.748 30.3191C125.644 30.3111 125.547 30.2951 125.443 30.2871C123.623 27.7619 121.916 25.1727 120.361 22.4876C120.04 22.2719 119.719 22.0481 119.391 21.8323C118.926 21.1371 118.477 20.3699 117.803 19.9384C117.05 19.4509 116.641 18.5159 115.663 18.3561C114.813 17.4611 113.627 16.9736 112.921 16.1026C112.328 16.0386 111.879 15.9987 111.438 15.9507C111.246 16.2145 111.061 16.4702 110.829 16.8058C110.228 16.5261 109.658 16.2384 109.073 16.0147C108.608 15.8389 108.159 15.3594 107.59 15.7989C107.422 15.6631 107.253 15.5272 107.069 15.3754C106.748 15.3754 106.372 15.4793 106.099 15.3594C105.065 14.8879 103.983 14.9678 102.9 14.9598C102.572 14.9598 102.227 15.0158 101.914 14.9438C101.313 14.808 100.76 14.9678 100.183 15.0877C99.766 15.1756 99.2609 15.2875 98.9002 15.1356C98.3871 14.9279 97.8981 14.9678 97.4011 14.9678C96.0142 14.9438 94.6193 14.9518 93.2244 14.9518C93.1122 14.9518 93.008 14.9598 92.9358 14.9678C92.6152 15.1276 92.3266 15.2715 92.0781 15.3993H90.8996C89.641 15.8868 88.4065 16.0706 87.7732 17.1255H86.0736C85.8732 16.9736 85.7049 16.8378 85.5606 16.7179H83.4602C83.2678 16.8458 83.0915 17.0775 82.9311 17.0615C82.2337 17.0136 81.6725 17.4371 81.0472 17.541C80.3418 17.6609 79.7485 17.9965 79.1794 18.3321C78.4659 18.7557 77.5921 18.7797 76.9427 19.3231C76.3014 19.1073 75.8846 19.6827 75.3314 19.8025C74.9306 19.8904 74.4817 20.0742 74.4255 20.6017C73.4956 20.6416 72.9425 21.1211 72.6779 21.8243C72.4214 21.9682 72.221 22.0401 72.0767 22.168C71.5877 22.5915 71.1788 23.1429 70.6257 23.4386C69.6637 23.942 69.1186 24.7811 68.5093 25.5882C68.0203 26.2355 67.5393 26.8828 67.0423 27.5221C66.4651 28.2733 66.2406 29.2323 65.5752 29.9355C65.455 30.0634 65.5191 30.3511 65.447 30.5508C65.1984 31.2141 64.9018 31.8614 64.6854 32.5327C64.4208 33.3398 64.2284 34.1709 63.9719 35.1059C63.9879 35.0979 63.8757 35.1698 63.8356 35.1938C63.7795 35.937 63.7234 36.6322 63.6753 37.3275C63.8436 37.5512 63.996 37.751 64.1322 37.9268V38.9337C63.9879 39.0456 63.8517 39.1495 63.7074 39.2614C63.7795 39.4372 63.8517 39.597 63.8998 39.7089C63.8276 39.9566 63.7234 40.1564 63.7154 40.3642C63.6673 41.5868 63.8036 42.8175 63.5069 44.0402C63.4027 44.4717 63.4027 44.9672 63.6673 45.4147C63.7635 45.5745 63.8837 46.006 63.3386 46.1019C63.3145 45.8382 63.3145 45.5905 63.2504 45.3667C63.1783 45.103 63.058 44.8553 62.9538 44.5996C62.9217 44.6075 62.8897 44.6075 62.8496 44.6155V46.3337C62.6732 46.4695 62.5369 46.5734 62.3766 46.6933V50.1295C61.7754 50.3613 61.6872 50.9447 61.7433 51.4321C61.8074 51.9835 62.0559 52.5109 61.7914 53.0703C62.1121 54.1092 61.8635 55.1641 61.9277 56.2109C61.9678 56.8982 61.9918 57.5854 62.3686 58.1448C62.3686 58.928 62.4327 59.6632 62.3526 60.3824C62.2804 61.0217 62.3445 61.645 62.4568 62.2364C62.6331 63.1554 62.8496 64.0504 62.8255 64.9934C62.8175 65.5607 62.7374 66.1281 62.9939 66.7035C63.1302 67.0152 62.9538 67.4627 62.9057 67.9661C63.1622 68.5015 63.1061 69.1568 62.8255 69.8441C62.9698 70.0279 63.1222 70.2197 63.2905 70.4434C63.0019 70.9469 63.2584 71.4663 63.2745 71.9778C63.2905 72.9847 63.1141 73.9996 63.4669 74.9985C63.6112 75.3901 63.6833 75.8376 63.6593 76.2531C63.6031 77.1721 63.6993 78.0911 63.7074 79.0101C63.7074 79.3218 63.8116 79.6334 63.8356 79.8013C63.7715 80.3127 63.7154 80.6883 63.6673 81.0639C63.8436 81.1678 63.9639 81.2397 63.996 81.2557C64.0441 81.863 64.1082 82.4064 64.1242 82.9658C64.1403 83.5012 64.2044 84.0526 63.9238 84.5561C64.2044 85.1714 63.7154 85.5949 63.5631 86.1144C63.2504 86.2582 62.9538 86.3861 62.6331 86.5379C62.3926 86.3621 62.1682 86.1943 62.064 86.1224C61.4066 86.0904 60.8935 86.0584 60.5809 86.0425C59.8514 86.2822 59.3143 86.6018 58.7772 86.6098C58.1198 86.6178 57.8312 87.0973 57.3662 87.345C57.3101 87.377 57.2219 87.345 57.1498 87.361C56.26 87.5848 55.3541 87.7366 54.5284 88.2001C54.1275 88.4239 53.6786 88.5677 53.2297 88.6716C52.2276 88.9033 51.4099 89.4707 50.5441 89.9662C49.5902 90.5176 49.1492 91.4606 48.5801 92.2917C48.1071 92.9869 47.8425 93.818 47.586 94.6411C47.3054 95.5521 47.3696 96.3992 47.5539 97.1424C47.2413 97.6698 46.9767 98.1093 46.7202 98.5488C46.8645 99.6117 46.5519 100.675 46.9447 101.705C47.0329 101.937 46.8485 102.257 46.8405 102.537C46.8244 102.84 46.8725 103.144 46.8725 103.2C46.8164 103.823 46.6561 104.255 46.7763 104.582C47.0409 105.301 46.9527 106.013 46.9607 106.732C46.9607 107.203 46.9687 107.675 47.1932 108.098C47.4257 108.538 47.4096 109.001 47.4096 109.473C47.4096 110.096 47.3936 110.72 47.4177 111.335C47.4257 111.615 47.5219 111.886 47.594 112.23C47.081 112.869 47.6902 113.668 47.4177 114.404C47.8265 115.538 47.8666 116.721 47.8425 117.912C47.8345 118.495 47.8425 119.079 47.8425 119.662C47.9949 119.774 48.1392 119.878 48.3155 120.013C47.9868 120.637 48.7805 121.228 48.3476 121.867C48.6121 122.475 48.4037 123.09 48.2754 123.713C48.4678 123.674 48.5801 123.65 48.7885 123.61C48.564 124.273 48.4678 124.808 48.6923 125.448C48.8687 125.943 48.6602 126.566 48.6201 127.254C48.9729 127.685 48.6602 128.229 48.6282 128.764C48.6763 129.547 48.7324 130.33 48.7805 131.113C48.9248 131.313 49.0611 131.513 49.2134 131.729C49.037 131.841 48.9168 131.913 48.7644 132.008V132.648C48.8847 132.8 49.029 132.967 49.2054 133.183C49.1573 133.463 49.1011 133.783 49.0611 134.094C49.021 134.374 48.8847 134.709 48.9889 134.933C49.3176 135.644 49.1252 136.364 49.1813 137.083C49.2054 137.411 49.0771 137.802 49.2214 138.058C49.494 138.561 49.3978 139.049 49.2775 139.488C49.4459 139.592 49.526 139.648 49.5501 139.656C49.502 140.096 49.3176 140.543 49.4459 140.855C49.6864 141.43 49.5741 141.998 49.6302 142.565C49.6623 142.917 49.7345 143.26 49.7906 143.604C49.6864 143.907 49.5982 144.227 49.6463 144.531C49.6864 144.803 49.7104 145.026 49.6543 145.314C49.5661 145.761 49.6463 146.249 49.6864 146.72C49.7264 147.208 49.5421 147.679 49.6222 148.167C49.6302 148.239 49.5982 148.335 49.6383 148.383C49.9749 148.806 49.7906 149.294 49.8467 149.757C49.9028 150.253 50.007 150.74 50.0631 151.236C50.1513 152.163 50.2074 153.097 50.3036 154.032C50.3277 154.232 50.4559 154.424 50.5201 154.56C50.3597 155.103 50.2235 155.583 50.0872 156.07C50.1353 156.158 50.2315 156.246 50.2395 156.342C50.3357 157.229 50.4319 158.124 50.5121 159.019C50.5441 159.347 50.4159 159.73 50.5521 159.994C50.8808 160.633 50.5842 161.305 50.7606 161.92C50.945 162.559 50.977 163.198 50.953 163.846C50.9049 165.005 51.0492 166.155 51.1855 167.306C51.2496 167.873 51.3859 168.433 51.5141 169.168C51.5462 169.216 51.6985 169.416 51.8829 169.655C51.7947 169.983 51.7065 170.327 51.6264 170.638C52.0913 172.988 53.4141 174.978 54.1596 177.271C54.7047 177.966 55.2659 178.766 55.9152 179.485C56.3802 180.004 56.9013 180.588 57.5987 180.707C58.7371 180.899 59.643 181.531 60.621 182.018C60.7172 182.066 60.8134 182.098 60.9336 182.146C61.0138 182.01 61.0779 181.89 61.1581 181.746C61.3264 181.874 61.4948 182.002 61.5429 182.034C62.3365 182.194 62.9939 182.322 63.6593 182.458C63.6993 182.322 63.7635 182.13 63.8436 181.882C64.6293 180.644 63.2504 179.445 63.2504 179.445C63.1462 179.181 63.05 178.941 63.0179 178.853C62.4728 178.614 62.0559 178.366 61.615 178.246C61.0138 178.086 60.4847 177.823 59.9877 177.455C59.675 177.223 59.3223 177.039 58.9776 176.848C58.3763 176.504 57.8793 176.08 57.5025 175.465C56.9414 174.546 56.4604 173.627 56.1317 172.588C55.8591 171.733 55.5705 170.902 55.5465 170.007C55.4182 169.839 55.2899 169.671 55.2018 169.56C55.2659 169.368 55.306 169.24 55.3461 169.12C55.1937 169.024 55.0735 168.96 54.9532 168.888C55.0895 168.712 55.2258 168.545 55.3461 168.385C55.3461 167.354 55.314 166.355 55.1617 165.34C54.9693 164.102 54.9853 162.823 54.9132 161.56C54.9051 161.448 54.9372 161.329 54.8891 161.241C54.4402 160.37 54.9292 159.363 54.4803 158.5C54.7128 158.06 54.4081 157.629 54.4642 157.181C54.5204 156.678 54.4803 156.158 54.4803 155.647C54.4803 155.175 54.5043 154.696 54.4723 154.224C54.4161 153.361 54.4562 152.466 54.2157 151.659C53.9512 150.78 54.1195 149.949 54.1676 149.086C54.2318 149.254 54.2959 149.429 54.352 149.597C54.3841 149.589 54.4161 149.581 54.4482 149.573V149.062C54.1837 148.71 53.9752 148.439 53.7908 148.191C54.1596 147.536 54.0955 146.952 53.9271 146.569C53.9672 145.953 54.1356 145.482 53.9993 145.122C53.7668 144.507 53.855 143.907 53.8149 143.3C53.7989 143.044 53.847 142.773 53.7508 142.549C53.4702 141.878 53.6305 141.206 53.6145 140.399C53.7668 140.631 53.8389 140.743 54.0153 141.007C53.9752 140.663 54.0073 140.447 53.9191 140.311C53.5503 139.776 53.382 139.512 53.39 139.129C53.39 139.001 53.5103 138.873 53.5904 138.745C53.6065 138.761 53.6145 138.777 53.6305 138.793C53.6225 138.769 53.6225 138.737 53.6145 138.713L53.5824 138.745C53.4622 138.25 53.3419 137.762 53.2457 137.379C53.374 136.883 53.4782 136.492 53.5744 136.092C53.0613 135.74 53.5103 135.357 53.5744 134.997C53.0293 133.846 52.6926 132.664 52.6926 131.377C52.7006 130.298 52.5643 129.219 52.4681 128.141C52.4601 128.013 52.3318 127.893 52.3238 127.877C52.3879 127.445 52.5643 127.062 52.4521 126.838C52.2036 126.375 52.2917 125.911 52.2757 125.456C52.2517 124.648 52.2757 123.849 52.2677 123.042C52.2677 122.826 52.2837 122.603 52.2276 122.395C51.9791 121.46 51.8188 120.509 51.8188 119.534C51.8188 119.079 51.7145 118.623 51.6825 118.168C51.6584 117.816 51.6745 117.464 51.6745 117.113C51.4821 116.322 51.4821 116.322 51.5863 115.299C51.5943 115.235 51.5462 115.163 51.5382 115.099C51.426 113.557 51.1293 112.03 51.1454 110.472C51.1534 109.809 50.961 109.137 50.8407 108.466C50.6644 107.491 50.4399 106.516 50.2956 105.533C50.2555 105.238 50.5361 104.862 50.4399 104.606C50.015 103.456 50.5922 102.225 50.023 101.154C50.6804 100.667 51.0011 101.41 51.458 101.394C52.0432 101.378 52.4922 101.657 52.9251 101.865H54.0714C54.2879 102.033 54.4803 102.185 54.6326 102.297H57.3743C57.5346 102.425 57.6949 102.56 57.743 102.6C58.0958 102.664 58.3202 102.68 58.5367 102.736C59.8193 103.104 60.0358 103.128 61.5509 102.96C61.6551 102.952 61.7593 103 61.8635 103.016C62.6171 103.088 63.3787 103.152 64.2445 103.224C64.4208 102.648 64.99 102.84 65.3989 102.648C66.7376 102.017 68.2207 101.929 69.5996 101.458C70.0725 101.282 70.6738 101.49 71.2109 101.522ZM126.165 77.6196C126.133 77.6196 126.1 77.6276 126.06 77.6276C126.036 77.4678 126.004 77.3 125.98 77.1401C126.044 77.1401 126.1 77.1322 126.165 77.1322V77.6196V77.6196ZM113.009 119.382C112.825 118.032 112.103 117.001 111.109 116.122C110.677 115.738 110.171 115.418 109.819 114.979C109.418 114.476 108.993 114.052 108.392 113.812C107.831 113.588 107.422 112.973 106.692 113.181C106.66 113.189 106.564 112.949 106.5 112.837C106.259 112.813 106.051 112.797 105.851 112.773C105.73 112.486 105.626 112.23 105.594 112.15C105.025 111.966 104.624 111.774 104.207 111.727C103.79 111.679 103.446 111.335 102.949 111.527C102.54 111.687 102.075 111.431 101.618 111.479C101.145 111.527 100.664 111.487 100.263 111.487C99.9022 111.655 99.6217 111.846 99.309 111.91C97.9542 112.174 96.8319 112.949 95.6454 113.572C94.9801 113.924 94.451 114.547 93.8818 115.035C93.9219 115.746 93.2725 116.377 93.8818 117.009C93.6894 117.153 93.5531 117.256 93.4088 117.368C93.4088 117.704 93.1122 117.712 93.1122 118.04C92.8156 117.72 92.8958 118.551 92.8557 118.543C92.6232 119.382 92.5831 119.782 92.3506 120.605C92.4869 120.765 92.1262 122.275 92.1342 122.291C92.0781 123.674 92.038 124.209 92.2384 125.615C92.3506 125.847 93.0481 127.461 93.0641 127.757C93.1443 128.836 93.6413 128.676 94.2586 129.523C94.5792 129.955 95.6454 129.891 95.918 130.266C96.2467 130.386 96.5353 130.45 96.7678 130.594C96.9922 130.738 97.361 130.738 97.4011 131.105C97.6817 131.057 97.9222 131.089 97.9622 131.409C97.8821 132.008 97.7137 132.648 97.85 133.215C98.2428 134.853 97.866 136.532 98.2268 138.178C98.4432 139.185 98.2588 140.247 98.4352 141.302C98.6677 142.645 98.6196 144.035 98.6998 145.41C98.6998 145.482 98.7318 145.546 98.7559 145.61C98.8761 145.682 98.9884 145.761 99.0284 145.785C99.1487 146.345 99.2289 146.84 99.3491 147.32C99.6377 148.439 99.6137 149.557 99.4934 150.876C99.3732 150.516 99.317 150.332 99.1808 149.925C99.0605 151.499 99.0445 152.81 99.7259 154.04C102.075 154.056 104.44 154.184 106.869 153.457C107.253 153.193 107.606 152.618 108.256 152.466C108.424 151.819 108.993 151.507 109.466 151.092C109.097 150.412 108.745 149.749 108.384 149.086C108.616 148.782 108.865 148.463 109.234 147.983C109.234 147.991 109.266 147.751 109.298 147.52C109.466 147.671 109.602 147.799 109.787 147.959C109.907 147.008 110.019 146.161 110.115 145.306C110.139 145.09 110.163 144.85 110.107 144.651C109.811 143.612 109.65 142.557 109.674 141.47C109.674 141.27 109.546 141.071 109.482 140.871C110.003 140.391 109.514 140.032 109.306 139.648C109.458 139.105 109.314 138.034 109.089 136.827C108.913 135.884 108.897 134.909 108.817 134.006C108.616 133.878 108.496 133.806 108.392 133.743C108.288 133.279 108.552 132.848 108.392 132.384C108.336 132.224 108.568 131.96 108.696 131.689C108.801 131.889 108.849 131.976 108.897 132.08C109.282 131.577 108.704 131.385 108.6 131.097C108.696 130.714 108.777 130.37 108.905 129.875C109.153 129.731 109.522 129.531 109.979 129.267C110.332 128.588 110.965 127.941 111.053 126.974C111.109 126.431 111.422 125.911 111.639 125.392C112.312 123.801 112.913 122.195 112.737 120.437C112.897 120.309 113.033 120.213 113.17 120.109C113.13 119.854 113.041 119.622 113.009 119.382ZM109.418 140.303C109.434 140.487 109.45 140.679 109.466 140.863C109.105 140.775 109.37 140.503 109.418 140.303ZM108.48 134.142C108.496 134.134 108.52 134.158 108.536 134.174C108.536 134.198 108.536 134.214 108.536 134.238C108.496 134.222 108.456 134.214 108.416 134.198C108.44 134.174 108.456 134.15 108.48 134.142ZM109.185 123.737C109.145 123.793 109.33 125.216 108.416 126.742C107.983 127.469 107.318 127.973 107.029 128.828C106.668 128.612 105.995 129.195 105.578 128.948C105.201 129.723 105.225 129.667 104.857 130.426C104.889 131.465 104.832 132.528 104.48 133.583C104.279 134.174 104.44 134.885 104.416 135.541C104.376 136.587 104.48 137.61 104.816 138.617C104.913 138.913 104.816 139.273 104.865 139.592C105.057 140.927 105.121 142.285 105.738 143.596C105.698 144.371 105.762 145.186 106.372 145.857C106.42 147.04 106.548 147.408 107.053 147.879V148.638C105.754 149.158 104.424 149.39 102.997 149.182C102.732 148.471 102.612 147.711 102.652 146.912C102.66 146.633 102.556 146.353 102.508 146.073C102.371 145.338 102.347 144.555 102.171 143.852C101.938 142.965 102.283 142.046 101.602 141.158C101.946 141.198 102.059 141.214 102.235 141.23C102.179 140.623 102.363 140.008 102.059 139.424C102.387 138.881 102.155 138.29 102.227 137.738C102.067 137.61 101.93 137.506 101.802 137.411C102.299 135.301 101.898 133.255 101.65 131.057C101.642 131.065 101.722 130.946 101.778 130.818C101.802 130.754 101.786 130.674 101.786 130.522C101.674 130.426 101.473 130.33 101.377 130.162C101.169 129.803 100.936 129.571 100.503 129.435C99.9744 129.275 99.1647 129.731 99.1006 129.124C98.0504 128.556 97.4652 128.62 97.0163 127.541C96.6395 126.63 95.7176 126.047 95.4851 125.08C95.437 124.88 95.1244 123.154 94.9881 122.898C94.9801 122.075 94.9881 121.092 95.421 119.814C95.445 119.75 95.453 119.67 95.5011 119.622C96.3589 118.735 96.9922 117.648 98.0023 116.913C98.3631 116.649 98.812 116.497 99.2289 116.306C99.5495 116.154 99.8862 116.034 100.207 115.898C101.353 115.658 102.411 116.122 103.502 116.322C103.798 116.377 104.055 116.625 104.351 116.737C104.848 116.921 105.321 117.145 105.867 117.256C106.532 117.384 106.909 118.016 107.374 118.471C107.686 118.783 107.999 119.094 108.288 119.422C108.68 119.862 109.065 120.301 109.185 120.925C109.25 121.38 109.474 123.354 109.185 123.737ZM126.197 31.0943C126.277 31.35 126.365 31.5418 126.638 31.6057V30.8465C126.06 30.6068 126.365 29.6718 125.563 29.504C125.644 29.7997 125.716 30.0634 125.788 30.3271L125.764 30.2951C125.764 30.3031 125.764 30.3111 125.772 30.3191C125.78 30.3191 125.78 30.3191 125.788 30.3191C125.924 30.5748 126.108 30.8226 126.197 31.0943ZM53.7989 138.993C53.7347 138.913 53.6706 138.841 53.6065 138.761C53.6225 138.865 53.6385 138.961 53.6546 139.065C53.7027 139.041 53.7508 139.017 53.7989 138.993ZM53.6145 136.028C53.5984 136.036 53.5824 136.044 53.5584 136.052C53.5584 136.052 53.5584 136.052 53.5584 136.06C53.5744 136.068 53.5744 136.076 53.5904 136.084C53.5984 136.06 53.6065 136.044 53.6145 136.028ZM62.5369 43.5607C62.5129 43.5527 62.4888 43.5287 62.4808 43.5287C62.4568 43.5367 62.4327 43.5687 62.4167 43.5847L62.5369 43.6246C62.5369 43.6006 62.5369 43.5767 62.5369 43.5607ZM62.569 45.3427C62.553 45.3188 62.5289 45.3028 62.5129 45.2788C62.4888 45.3108 62.4648 45.3348 62.4488 45.3667L62.5129 45.3987C62.5209 45.3827 62.545 45.3667 62.569 45.3427ZM62.4648 43.9762C62.4568 44.0002 62.4327 44.0242 62.4327 44.0322C62.4407 44.0562 62.4728 44.0801 62.4888 44.0961L62.5289 43.9762C62.5049 43.9762 62.4808 43.9762 62.4648 43.9762ZM116.264 86.7297C116.144 86.2342 116.336 85.6988 116.216 85.3073C116.048 84.7559 116.12 84.2284 116.08 83.701C116.04 83.2295 116.072 82.75 116.072 82.2786C116.08 81.839 116.12 81.4075 116.096 80.952C116.032 79.8252 116.104 78.6825 116.064 77.5557C116.024 76.4369 115.927 75.3261 115.855 74.2073C115.823 73.7039 115.791 73.2004 115.767 72.697C115.743 72.2255 115.687 71.754 115.719 71.2825C115.735 71.0188 115.743 70.7951 115.679 70.5154C115.446 69.4365 115.142 68.3337 115.615 67.2389C115.39 66.7994 115.775 66.3519 115.623 65.9204C115.511 65.5847 115.342 65.2651 115.19 64.9294V61.8688C115.19 61.3973 115.19 60.9178 115.19 60.4463C115.19 59.9349 115.27 59.3995 115.166 58.912C115.054 58.4085 115.222 57.953 115.206 57.4735C115.166 56.4187 115.166 55.3559 115.198 54.293C115.254 52.7507 114.853 51.3282 114.14 49.9697C114.108 49.9138 114.124 49.8339 114.116 49.7619C114.252 49.6581 114.388 49.5542 114.525 49.4503C114.837 49.0907 114.3 48.819 114.444 48.4194C114.565 48.0997 114.38 47.6682 114.308 47.2926C114.236 46.957 114.557 46.6853 114.348 46.2857C114.188 45.9661 114.308 45.4946 114.308 45.095C114.308 44.7274 114.324 44.3598 114.3 44.0002C114.284 43.7525 114.284 43.4888 114.188 43.265C113.907 42.6177 113.811 41.9544 113.875 41.2512C113.739 41.0834 113.546 40.9315 113.482 40.7398C113.29 40.1324 113.17 39.5091 112.969 38.9018C112.889 38.662 112.689 38.4622 112.544 38.2465C112.472 38.3903 112.4 38.5422 112.272 38.8059C111.983 38.1586 111.759 37.6711 111.542 37.1916C110.997 36.4884 110.46 35.7612 109.883 35.0819C109.691 34.8582 109.378 34.7303 109.065 34.5225C108.849 33.9232 108.135 33.7873 107.662 33.3078C107.374 33.4837 107.141 33.6275 106.933 33.7634C106.797 33.7074 106.668 33.6595 106.628 33.6435C106.316 33.8832 106.091 34.131 105.81 34.2348C105.522 34.3387 105.458 34.7703 105.049 34.6024C105.217 35.0819 105.337 35.4895 105.506 35.881C105.618 36.1368 105.754 36.4884 105.963 36.5683C106.805 36.88 106.981 37.8229 107.694 38.2704C108.207 38.5981 108.248 39.2454 108.376 39.8048C108.56 40.5879 109.129 41.2512 109.065 42.0743C109.226 42.1782 109.346 42.2501 109.466 42.322V43.273C109.634 43.6086 109.779 43.8963 109.923 44.184C109.931 45.095 110.035 45.9821 110.163 46.8771C110.204 47.1887 110.324 47.5004 110.348 47.8121C110.412 48.8509 110.308 49.8898 110.54 50.9447C110.757 51.9196 110.717 52.9505 110.789 53.9494C110.797 54.0613 110.781 54.1731 110.805 54.277C111.069 55.5876 111.093 57.3057 110.853 58.3206C110.965 58.3846 111.069 58.4565 111.069 58.4485C111.053 59.1118 111.053 59.6871 111.013 60.2545C110.973 60.7899 110.829 61.3094 110.813 61.8448C110.797 62.4122 110.869 62.9796 110.909 63.7068C110.909 63.6988 110.797 63.8746 110.805 64.0344C110.893 65.4808 110.701 66.9193 110.973 68.3737C111.23 69.7482 111.158 71.1786 111.238 72.5851C111.27 73.1205 111.125 73.6639 111.43 74.1834C111.518 74.3352 111.422 74.6069 111.374 74.8067C111.166 75.6618 111.15 76.5008 111.398 77.3639C111.542 77.8753 111.614 78.4108 111.663 78.9382C111.679 79.098 111.478 79.2738 111.39 79.4177C111.069 79.2658 110.813 79.146 110.741 79.114C110.268 79.146 109.987 79.1619 109.731 79.1779C109.682 79.2658 109.634 79.3378 109.602 79.4017C109.466 79.3457 109.33 79.2419 109.274 79.2738C108.801 79.5375 108.288 79.4656 107.783 79.4656C106.356 79.4736 104.921 79.4656 103.526 79.4656C103.205 79.6254 102.916 79.7693 102.644 79.9051H98.6517C98.1145 80.1289 97.5454 80.2088 97.0163 80.4166C96.2868 80.6963 95.5492 80.7922 94.7877 80.7842C94.3468 80.7842 93.8898 80.7043 93.4729 80.8002C91.9097 81.1598 90.3304 81.2557 88.7432 81.2237C88.3744 81.2157 88.0136 81.2237 87.6529 81.2237C87.4445 81.3835 87.236 81.5274 87.0356 81.6792C86.1939 81.7112 85.3602 82.0468 84.5826 81.9589C83.7568 81.871 83.2678 82.2626 82.6345 82.5902C82.6506 83.2615 82.851 83.9248 82.6666 84.3963C82.9392 84.668 83.1315 84.8597 83.4282 85.1554C83.5885 85.2034 83.9332 85.2993 84.2779 85.3872C84.7188 85.507 85.1437 85.8187 85.6007 85.4271C86.0496 85.8027 86.4985 85.555 86.9154 85.3792C87.3643 85.1954 87.8132 85.1474 88.2942 85.1634C88.6229 85.1794 88.9917 85.2513 89.2803 85.1394C90.5309 84.644 91.8376 84.7559 93.1362 84.7239C93.6734 84.7079 94.2025 84.62 94.8358 84.5641C94.8919 84.588 95.0522 84.66 95.2286 84.7319C95.429 84.58 95.6294 84.4282 95.8058 84.2924H97.385C97.6817 84.1485 97.9703 84.0047 98.1546 83.9088C98.6917 83.8528 99.1487 83.8848 99.5495 83.749C100.8 83.3414 102.107 83.3734 103.389 83.2055C104.68 83.0377 105.979 82.8939 107.294 82.9738C107.398 82.9818 107.526 82.9818 107.614 82.9338C108.48 82.4064 109.442 82.5662 110.388 82.5343C110.628 82.4144 110.885 82.2786 111.182 82.1347C111.35 82.2865 111.534 82.4544 111.687 82.5982V85.3872C112.192 86.3062 112.416 87.377 113.338 87.9604C113.482 87.9044 113.611 87.8485 113.731 87.8005C113.859 87.9684 113.963 88.1042 114.108 88.288C114.589 88.2161 115.078 88.1442 115.663 88.0563C115.791 88.0962 116.016 88.1681 116.256 88.2481C116.208 88.0003 116.144 87.8325 116.16 87.6727C116.16 87.353 116.336 87.0094 116.264 86.7297ZM80.7907 76.2451C80.8869 75.8296 80.6304 75.3421 80.6224 74.8866C80.5342 71.2186 80.47 67.5426 80.3979 63.8666C80.3979 63.7547 80.4139 63.6428 80.3979 63.5389C80.3418 63.2672 80.2696 62.9955 80.2055 62.7238C80.3338 62.4521 80.438 62.1565 80.3738 61.9087C80.0933 60.8299 79.949 59.7351 79.957 58.6163C79.965 57.042 79.965 55.4757 79.957 53.9014C79.957 53.6137 79.965 53.3181 79.8928 53.0384C79.6684 52.1673 79.4519 51.3043 79.5161 50.3933C79.5241 50.2414 79.476 50.0976 79.4439 49.8738C79.3157 50.0576 79.2515 50.1615 79.1473 50.3053C78.987 49.5861 79.0832 48.9548 79.3076 48.3395C79.6924 47.2846 79.5642 46.1898 79.4279 45.127C79.3718 44.6955 79.2595 44.3119 79.4439 43.8803C79.5962 43.5127 79.6203 43.1371 79.1714 42.8974C78.9309 43.3769 79.3557 43.9842 78.7545 44.3438C78.6022 44.0801 78.4579 43.8244 78.3216 43.5767C77.7765 44.5276 77.6242 45.4946 78.1532 46.4695C77.9929 46.8851 77.8326 47.2766 77.6963 47.6442C77.4959 47.6762 77.3516 47.7002 77.1512 47.7401C77.0309 48.1237 76.9107 48.5313 76.7904 48.9388C76.6862 49.0028 76.566 49.0827 76.4537 49.1546V53.4299C76.2854 53.6457 76.1411 53.8455 76.0128 54.0213C76.0128 55.2759 76.0128 56.4826 76.0128 57.6893C76.0128 57.945 75.9327 58.2407 76.0369 58.4485C76.3896 59.1517 76.1732 59.8629 76.2213 60.5981C76.0609 60.5422 75.9647 60.5102 75.8284 60.4623V61.1895C75.9808 61.2854 76.093 61.3573 76.1651 61.4053C76.2373 62.6759 76.3094 63.8986 76.3816 65.1532C76.3094 65.2011 76.1892 65.2731 76.1491 65.305C75.5639 66.7275 75.4436 68.1419 75.6441 69.7722C75.7643 69.4126 75.8204 69.2208 75.9006 68.989C76.0289 69.4765 76.1411 69.908 76.2453 70.3316C76.0609 70.4834 75.9086 70.6113 75.7322 70.7711C75.9727 71.4184 76.1892 72.0337 76.4297 72.689C76.2854 72.6331 76.1892 72.5931 76.093 72.5531C76.0128 73.0007 75.9246 73.4482 75.8365 73.9356C75.8685 73.9836 75.9567 74.0715 75.9808 74.1674C76.2213 75.1743 76.4297 76.1892 76.4457 77.2281C76.4698 79.6414 76.5018 82.0548 76.4377 84.4602C76.4056 85.6349 76.6622 86.7377 76.9187 87.8565C77.0069 88.2241 77.2554 88.5597 77.3997 88.8474C77.6883 88.9593 77.9128 89.0552 78.1532 89.1511C78.1933 89.4547 78.2334 89.7264 78.2735 89.9981C78.3216 90.0061 78.3697 90.0141 78.4098 90.0301C78.4899 89.8223 78.5781 89.6146 78.6583 89.4068C78.9709 89.3349 79.0832 89.5586 79.2034 89.8303C79.5241 89.5746 79.8367 89.3189 80.1414 89.0791C80.1654 89.1191 80.2055 89.215 80.2536 89.3029C80.454 89.2789 80.6544 89.255 80.8548 89.231C80.8548 88.6956 80.8789 88.1841 80.8548 87.6727C80.7907 86.3381 81.0312 84.9956 80.6544 83.669C80.5582 83.3334 80.5422 82.9019 80.6705 82.5822C80.911 81.9669 80.943 81.4155 80.6624 80.8161C80.5983 80.6723 80.6063 80.4166 80.6945 80.2887C80.9591 79.9131 80.8468 79.5136 80.8548 79.122C80.8709 78.6505 80.7987 78.163 80.8789 77.6995C80.935 77.1961 80.6705 76.7566 80.7907 76.2451ZM76.7904 49.5941C76.7584 49.5701 76.7343 49.5462 76.7022 49.5302C76.7263 49.5142 76.7423 49.4902 76.7664 49.4743C76.7824 49.4982 76.8065 49.5222 76.8225 49.5382C76.8145 49.5542 76.8065 49.5781 76.7904 49.5941ZM85.0074 34.9301C86.0977 34.5225 87.1879 34.083 88.3263 33.8592C88.9035 33.7474 89.5448 33.9152 90.1541 33.9551C90.3705 33.9711 90.611 34.091 90.7874 34.0271C91.6051 33.7394 92.4388 33.8433 93.2645 33.8193C93.521 33.8113 93.7696 33.7554 94.0261 33.7234L94.1544 33.8113C94.3227 33.6754 94.4911 33.5316 94.6754 33.3798C95.3969 33.5316 96.1425 33.5875 96.88 33.6994C97.7298 33.8353 98.4512 34.2348 99.3251 34.4186C99.5335 34.2508 99.798 34.043 100.071 33.8273C100.271 33.9791 100.471 34.123 100.544 34.1789H102.564C102.836 33.6355 103.446 33.7314 103.927 33.5156C103.838 33.3318 103.75 33.148 103.678 33.0042C103.43 32.9323 103.229 32.8683 103.077 32.8284C102.86 32.4768 102.684 32.1891 102.5 31.9014C102.716 31.8534 102.884 31.8135 103.149 31.7575C102.9 31.5178 102.732 31.286 102.516 31.1422C101.73 30.6068 100.88 30.1832 99.9824 29.8716C99.0445 29.536 98.1466 28.9766 97.0724 29.1923C96.6876 28.9046 96.2146 29.1524 95.7978 29.0085C95.3729 28.8567 94.8919 28.9925 94.483 29.0565C93.4248 29.2163 92.3747 29.4401 91.2924 29.4401C91.1161 29.4401 90.9477 29.512 90.7714 29.5439C89.4166 29.8316 88.0617 30.1193 86.6669 30.415C86.6588 30.431 86.6348 30.5109 86.5867 30.5508C86.0496 30.9184 85.5606 31.4139 84.9673 31.6057C84.2859 31.8215 83.7889 32.3169 83.1957 32.6286C82.5784 32.9562 81.9371 33.3878 81.392 33.8912C80.8148 34.4266 80.2696 35.002 79.7485 35.5934C79.2996 36.0968 78.9469 36.6882 78.4819 37.1756C78.041 37.6391 77.9929 38.3424 77.4398 38.718C77.4237 39.4372 76.7584 39.8208 76.5499 40.4441C76.4297 40.8037 76.2453 41.1473 76.101 41.467C76.0048 42.2661 75.9166 43.0413 75.8204 43.8004C76.117 43.5767 76.3976 43.3769 76.6622 43.1771C76.7022 43.233 76.7904 43.3609 76.9347 43.5687C77.1512 43.1931 77.3115 42.9294 77.4879 42.6257C77.5761 42.7935 77.6242 42.8814 77.6562 42.9454C77.8246 42.6577 78.0009 42.37 78.1773 42.0823C78.3296 41.8426 78.5541 41.6268 78.6423 41.3631C79.1794 39.7728 80.1574 38.4942 81.3759 37.3674C82.4582 36.3605 83.6045 35.4575 85.0074 34.9301ZM112.536 38.1746C112.536 38.1905 112.536 38.2065 112.536 38.2225C112.536 38.2305 112.544 38.2305 112.544 38.2385C112.552 38.2225 112.56 38.2065 112.568 38.1985C112.56 38.1905 112.552 38.1825 112.536 38.1746ZM112.112 37.4234C112.2 37.727 112.24 38.0227 112.536 38.1746C112.544 37.8709 112.649 37.5113 112.112 37.4234ZM76.0369 77.8674L76.2213 77.8514C76.1972 77.6196 76.1812 77.3879 76.1571 77.1641C76.117 77.1641 76.077 77.1721 76.0369 77.1721V77.8674ZM66.1604 36.8C66.2246 36.8 66.2807 36.7921 66.3448 36.7921C66.3208 36.6322 66.2887 36.4724 66.2647 36.3126C66.2326 36.3126 66.2005 36.3206 66.1604 36.3206V36.8ZM75.8124 62.9076V63.3871C75.8765 63.3871 75.9327 63.3791 75.9968 63.3791C75.9727 63.2193 75.9407 63.0595 75.9166 62.8996L75.8124 62.9076ZM125.403 61.3893C125.435 61.3893 125.467 61.3813 125.507 61.3813V60.8938C125.443 60.8938 125.387 60.9018 125.323 60.9018C125.355 61.0696 125.379 61.2295 125.403 61.3893ZM65.7356 39.0216C65.7676 39.0216 65.8077 39.0216 65.8398 39.0136C65.8318 38.9177 65.8318 38.8298 65.8237 38.7339C65.7917 38.7339 65.7596 38.7339 65.7195 38.7419C65.7275 38.8378 65.7275 38.9257 65.7356 39.0216ZM67.2988 73.6959C67.3389 73.6879 67.379 73.6879 67.419 73.6799C67.403 73.576 67.395 73.4801 67.379 73.3762C67.3389 73.3842 67.2988 73.3922 67.2507 73.3922C67.2667 73.4961 67.2828 73.6 67.2988 73.6959ZM67.0743 66.4478C67.1144 66.4398 67.1545 66.4318 67.2026 66.4318C67.1866 66.3279 67.1705 66.232 67.1545 66.1281L67.0342 66.1441C67.0503 66.248 67.0583 66.3519 67.0743 66.4478ZM84.6948 31.2461C84.6868 31.2701 84.6627 31.294 84.6627 31.302C84.6707 31.326 84.7028 31.35 84.7188 31.366C84.7349 31.326 84.7429 31.286 84.7589 31.2461C84.7349 31.2541 84.7108 31.2541 84.6948 31.2461ZM67.5794 75.2302C67.5874 75.2063 67.6034 75.1903 67.6114 75.1663C67.5954 75.1423 67.5714 75.1183 67.5553 75.1024C67.5313 75.1183 67.5152 75.1423 67.4912 75.1583C67.5233 75.1823 67.5553 75.2063 67.5794 75.2302ZM125.507 60.4064C125.523 60.3984 125.539 60.3904 125.563 60.3824C125.563 60.3744 125.555 60.3664 125.555 60.3584C125.547 60.3584 125.539 60.3504 125.539 60.3504C125.523 60.3744 125.515 60.3904 125.507 60.4064ZM78.3697 42.9533C78.3537 42.9294 78.3296 42.9054 78.3136 42.8894C78.2895 42.9054 78.2735 42.9294 78.2494 42.9454C78.2815 42.9693 78.3056 42.9933 78.3376 43.0093C78.3456 42.9933 78.3537 42.9773 78.3697 42.9533ZM102.267 135.964C102.275 135.988 102.307 136.012 102.323 136.028C102.339 135.988 102.347 135.948 102.363 135.908C102.339 135.908 102.323 135.908 102.299 135.908C102.291 135.924 102.267 135.948 102.267 135.964Z" fill="black"/>
</svg>