<svg xmlns="http://www.w3.org/2000/svg" width="767" height="147" viewBox="0 0 767 147" fill="none">
<g filter="url(#filter0_dd_420_41117)">
<rect x="16" y="33" width="735" height="84" rx="12" fill="#333333"/>
<path fill-rule="evenodd" clip-rule="evenodd" d="M96.1271 62.4118C96.1271 62.3257 96.1405 62.2367 96.1237 62.1541C96.1016 62.0458 96.0555 61.9428 96.017 61.8295C95.6082 61.8295 95.238 61.832 94.8678 61.829C94.3436 61.8246 93.8884 61.9686 93.6023 62.4543C93.4891 62.3969 93.3937 62.3617 93.3126 62.3054C92.6469 61.843 91.9094 61.6146 91.108 61.6262C90.7435 61.6312 90.3735 61.6606 90.0163 61.7324C89.3024 61.8762 88.6611 62.1939 88.1269 62.7049C87.1588 63.6308 86.8146 64.8367 86.7066 66.131C86.6717 66.5516 86.7142 66.9748 86.784 67.4022C86.9884 68.6535 87.4453 69.7434 88.4736 70.5164C89.1574 71.0304 89.9019 71.384 90.7804 71.3485C91.0335 71.3383 91.2871 71.3433 91.5404 71.3464C91.897 71.3507 92.2303 71.2538 92.5494 71.1045C92.7863 70.9937 93.0163 70.868 93.2709 70.7379C93.3329 71.1787 93.1957 71.5643 92.9922 71.8723C92.6628 72.371 92.1547 72.639 91.5514 72.685C91.3578 72.6997 91.1647 72.7404 90.9717 72.7394C90.7566 72.7381 90.5413 72.7055 90.3268 72.6808C90.2286 72.6697 90.1313 72.6479 90.0345 72.6263C89.5199 72.5117 89.0257 72.2541 88.4183 72.4162C87.8796 72.9116 87.8209 73.6981 87.4622 74.3555C88.2116 74.7734 88.9425 75.0711 89.7422 75.1759C89.7791 75.1808 89.8095 75.2372 89.8429 75.2694H92.1743C92.1927 75.2431 92.2103 75.1941 92.2292 75.1936C92.6703 75.1808 93.0761 75.0119 93.4688 74.8462C94.2185 74.5295 94.8551 74.0522 95.3416 73.3644C95.8918 72.5868 96.1046 71.7001 96.1154 70.7833C96.1477 67.9932 96.1271 65.2025 96.1271 62.4118V62.4118ZM93.0504 67.9225C92.5871 68.8953 91.39 69.1159 90.5738 68.6039C89.9687 68.2242 89.6814 67.6228 89.6441 66.9049C89.6272 66.5792 89.6305 66.2512 89.6441 65.9252C89.6672 65.3741 89.8741 64.898 90.2884 64.5407C90.5315 64.3316 90.8119 64.1846 91.1553 64.2064C91.5202 64.2296 91.8875 64.1725 92.2463 64.3123C92.575 64.4402 92.8084 64.6569 92.9921 64.9568C93.2821 65.4301 93.3178 65.9483 93.2843 66.4656C93.3067 66.9789 93.273 67.4553 93.0504 67.9225V67.9225ZM40.0523 65.2703C39.7363 64.995 39.4149 64.7261 39.056 64.4205C39.2179 64.2717 39.4089 64.1256 39.5652 63.948C40.2976 63.1165 40.5219 62.115 40.3353 61.0502C40.1901 60.2215 39.799 59.4989 39.0784 58.9965C38.4159 58.5349 37.6909 58.2458 36.9007 58.2208C35.6348 58.1804 34.3669 58.2156 33.1 58.2035C32.7017 58.1997 32.3862 58.3548 32.1144 58.6268C31.9867 58.7546 31.8774 58.9018 31.7598 59.0401V71.5479C33.145 71.5487 34.5304 71.555 35.9157 71.5463C36.3821 71.5434 36.8447 71.5494 37.3157 71.4682C37.882 71.3705 38.4074 71.2133 38.9163 70.9478C40.2187 70.2684 40.8376 69.1627 40.8792 67.7032C40.8897 67.3331 40.8614 66.9473 40.7657 66.5925C40.6337 66.1035 40.452 65.6184 40.0523 65.2703V65.2703ZM34.3586 60.9406C34.6001 60.5825 34.8576 60.4728 35.1879 60.4854C35.5918 60.5009 35.9968 60.4836 36.4011 60.4919C37.0039 60.5047 37.4755 60.9438 37.6454 61.5405C37.8494 62.2563 37.6212 62.8028 37.0971 63.252C36.965 63.3652 36.7764 63.4672 36.6107 63.4722C35.8562 63.4957 35.1006 63.4825 34.2731 63.4825C34.3041 62.5623 34.3327 61.7116 34.3586 60.9406V60.9406ZM37.9195 68.4376C37.6173 68.9525 37.1604 69.1362 36.6341 69.1588C35.8776 69.1915 35.1188 69.1672 34.2997 69.1672C34.2997 68.3086 34.2915 67.5028 34.3053 66.6973C34.3089 66.4996 34.3703 66.2987 34.4314 66.1082C34.4712 65.9842 34.536 65.8551 34.6868 65.8198C34.9108 65.7676 35.1339 65.6741 35.3587 65.6698C35.8576 65.6604 36.3543 65.6494 36.8563 65.7494C37.6032 65.8982 38.1371 66.4788 38.1449 67.2613C38.1491 67.6685 38.1428 68.057 37.9195 68.4376V68.4376ZM74.435 57.7998H73.32C73.2872 57.8335 73.2603 57.8812 73.2207 57.8987C72.8679 58.0529 72.5994 58.2993 72.4394 58.6553C72.2808 59.0075 72.2034 59.352 72.2855 59.7659C72.4108 60.3965 72.8181 60.7348 73.3159 60.9902C73.5936 61.1326 73.9126 61.1634 74.2377 61.0579C74.9077 60.8405 75.3451 60.4311 75.4849 59.702C75.5748 59.2319 75.4907 58.7171 75.1638 58.3936C74.9417 58.1739 74.6793 57.9963 74.435 57.7998V57.7998ZM71.8872 61.9686C71.8225 61.9151 71.784 61.8551 71.745 61.8549C70.7679 61.8497 69.7905 61.851 68.7818 61.851C68.6843 61.9616 68.5552 62.0767 68.4639 62.2175C68.0425 62.8677 67.6239 63.5201 67.2201 64.1818C67.0342 64.4869 66.8773 64.8094 66.5728 65.0161C66.3303 65.0356 66.0876 65.0548 65.8224 65.0759C65.8224 64.909 65.8224 64.7386 65.8224 64.5684C65.8224 62.8286 65.8096 61.0887 65.8289 59.3492C65.8363 58.695 65.3455 58.1722 64.7019 58.2044C64.2471 58.2273 63.79 58.2062 63.3339 58.2093C63.222 58.21 63.1098 58.2291 63.0031 58.2392C62.9261 59.4531 62.9593 71.1245 63.0415 71.5407H65.8224V70.2045C65.8224 69.7738 65.8206 69.3432 65.8229 68.9125C65.8252 68.4882 65.8126 68.0627 65.8324 67.6337H66.4241C66.5488 67.8124 66.703 67.9938 66.8137 68.1995C67.2866 69.0775 67.7468 69.9628 68.2113 70.8453C68.465 71.3271 68.8634 71.555 69.3954 71.5537C69.9696 71.5525 70.544 71.5537 71.1182 71.5537C71.3684 71.5537 71.6187 71.5537 71.9025 71.5537C70.9011 69.7785 69.9256 68.0491 68.9613 66.3396C69.9454 64.8693 70.9156 63.4203 71.8872 61.9686V61.9686ZM51.1498 64.648C50.7331 63.5799 50.0252 62.8235 49.0649 62.2763C48.2782 61.828 47.4047 61.7267 46.5318 61.6266C46.4486 61.6169 46.3612 61.6156 46.2791 61.6304C45.9384 61.6916 45.6003 61.7685 45.2587 61.8251C44.498 61.9508 43.8336 62.3128 43.2514 62.7907C42.1075 63.73 41.6304 65.0308 41.4963 66.4818C41.4683 66.7843 41.5477 67.0904 41.5689 67.3903C41.6104 67.9826 41.8031 68.5176 42.037 69.0361C42.4172 69.8791 43.0388 70.5044 43.8166 70.9938C44.5883 71.4796 45.4265 71.6898 46.3112 71.7517C46.6593 71.776 47.0071 71.707 47.3543 71.6737C48.1274 71.6001 48.801 71.2786 49.4416 70.8945C49.8242 70.6651 50.1831 70.3405 50.4537 69.9814C51.1697 69.0307 51.5938 67.9569 51.5297 66.7478C51.5532 66.0057 51.4152 65.3288 51.1498 64.648V64.648ZM48.7109 67.254C48.6694 67.4341 48.6344 67.6164 48.5814 67.7931C48.3342 68.6176 47.4191 69.264 46.5686 69.2911C45.6101 69.3211 44.6096 68.5848 44.4276 67.5314C44.3789 67.2488 44.3351 66.9654 44.289 66.6825C44.2471 66.2158 44.3921 65.785 44.5741 65.3914C44.8148 64.8703 45.2249 64.4719 45.7594 64.2614C46.6474 63.9114 47.5281 64.1672 48.089 64.801C48.7033 65.4952 48.9246 66.3255 48.7109 67.254V67.254ZM85.5959 63.5628C85.3728 62.9038 84.9551 62.4292 84.3719 62.0898C83.9909 61.8681 83.5695 61.7997 83.146 61.7035C82.3051 61.5122 81.5272 61.677 80.7773 62.0234C80.3594 62.2163 79.9811 62.4989 79.5655 62.753C79.5148 62.6595 79.4751 62.5457 79.4025 62.4616C79.2732 62.3114 79.1476 62.1219 78.979 62.0491C78.3007 61.7568 77.5882 61.806 76.8798 61.8598C76.788 63.8387 76.8309 71.144 76.9326 71.5339H79.7056C79.7056 69.9442 79.7181 68.4113 79.6983 66.8789C79.692 66.3837 79.7972 65.9354 80.0249 65.5106C80.394 64.8216 80.9649 64.4164 81.7284 64.3222C82.1449 64.271 82.5204 64.3798 82.8056 64.7294C82.9996 64.9675 83.0485 65.2409 83.0483 65.5363C83.0478 67.0349 83.049 68.5332 83.0497 70.0316C83.0499 70.1521 83.0428 70.2733 83.0517 70.3933C83.0925 70.9379 83.531 71.5069 84.0123 71.5381C84.6285 71.5782 85.2502 71.5782 85.893 71.5283C85.893 71.3781 85.893 71.2598 85.893 71.1416C85.8926 69.2126 85.885 67.2836 85.896 65.3548C85.8993 64.7352 85.7935 64.1464 85.5959 63.5628V63.5628ZM60.2814 62.681C59.8306 62.3382 59.314 62.0922 58.7727 61.9061C58.2313 61.7201 57.6626 61.737 57.1107 61.6351C56.9434 61.6041 56.7537 61.7246 56.5773 61.7159C56.0456 61.6904 55.5624 61.8833 55.0793 62.049C54.4537 62.2633 53.9232 62.6711 53.4629 63.1345C53.0021 63.5983 52.6603 64.1754 52.4503 64.8065C52.3078 65.2345 52.1822 65.682 52.1439 66.1293C52.0667 67.0336 52.1672 67.9158 52.522 68.7744C52.8919 69.6696 53.4458 70.4005 54.2354 70.9102C55.1049 71.4714 56.0797 71.7499 57.3169 71.7611C57.5345 71.7348 57.9618 71.7377 58.3569 71.6244C59.2769 71.3605 60.1134 70.95 60.8061 70.2254C61.6821 69.3086 62.0598 68.2029 62.1629 66.9778C62.2334 66.139 62.0562 65.3222 61.7277 64.5533C61.4086 63.8058 60.92 63.1667 60.2814 62.681V62.681ZM59.1547 67.8916C58.8846 68.6589 58.0536 69.2466 57.2456 69.2875C56.1148 69.3452 55.1222 68.4163 54.9507 67.3043C54.8557 66.6878 54.8921 66.1139 55.0943 65.5673C55.4499 64.6062 56.2916 63.999 57.3226 64.121C58.5142 64.2618 59.3041 65.1588 59.3313 66.3837C59.3336 66.4869 59.3316 66.5901 59.3316 66.7717C59.3486 67.1045 59.2949 67.493 59.1547 67.8916V67.8916ZM75.4468 66.9694C75.418 65.6698 75.3825 64.3705 75.3535 63.0712C75.3401 62.4735 74.9984 62.087 74.4123 61.9238C73.83 61.7617 73.2491 61.8723 72.6297 61.8237V71.5288H75.4447C75.4447 71.3875 75.4812 71.2539 75.4376 71.1579C75.3179 70.8935 75.3466 70.6208 75.356 70.3515C75.3832 69.5679 75.2857 68.7824 75.4374 67.9987C75.5014 67.6677 75.4546 67.313 75.4468 66.9694V66.9694Z" fill="white"/>
<path fill-rule="evenodd" clip-rule="evenodd" d="M135.056 64.1074C134.9 63.1312 134.4 62.4055 133.52 61.9887C133.131 61.8048 132.714 61.6701 132.265 61.7229C132.098 61.7425 131.928 61.7245 131.759 61.7263C130.888 61.7356 130.136 62.039 129.515 62.6677C129.317 62.8686 129.12 63.0705 128.912 63.2814C128.79 63.1072 128.686 62.9748 128.598 62.8315C128.263 62.281 127.768 61.9937 127.166 61.8142C126.712 61.6787 126.267 61.7544 125.818 61.7293C125.48 61.7102 125.162 61.8158 124.86 61.9583C124.433 62.1602 124.043 62.4206 123.724 62.7817C123.654 62.8603 123.554 62.9105 123.472 62.971C123.36 62.7171 123.265 62.5024 123.148 62.2355C122.922 62.1434 122.671 61.9739 122.406 61.9482C121.908 61.8999 121.402 61.9343 120.88 61.9343V71.5281H123.497V71.0034C123.497 69.7981 123.509 68.5926 123.492 67.3876C123.483 66.7651 123.617 66.1733 123.832 65.6086C124.039 65.0661 124.399 64.6389 124.925 64.3433C125.472 64.0362 126.443 64.2752 126.556 65.0377C126.586 65.2356 126.637 65.4325 126.637 65.6358C126.639 67.4438 126.639 69.2518 126.639 71.0598C126.639 71.2104 126.639 71.3609 126.639 71.5254H129.375C129.375 71.3325 129.375 71.1635 129.375 70.9946C129.375 69.6688 129.386 68.3428 129.369 67.0171C129.363 66.5825 129.449 66.1715 129.589 65.7765C129.857 65.0211 130.341 64.4672 131.129 64.2434C131.67 64.0899 132.234 64.3592 132.386 64.8806C132.466 65.1522 132.508 65.4449 132.51 65.7286C132.522 67.2437 132.533 68.7594 132.509 70.2741C132.497 71.0203 132.991 71.5974 133.786 71.5542C134.24 71.5297 134.697 71.5488 135.153 71.5481V64.3122C135.12 64.2441 135.068 64.1791 135.056 64.1074V64.1074ZM117.452 62.2583C116.687 61.8524 115.864 61.6649 115.129 61.721C114.579 61.7329 114.168 61.7355 113.751 61.819C112.767 62.0163 111.926 62.4851 111.263 63.2183C110.654 63.893 110.244 64.6942 110.095 65.6394C109.966 66.4627 109.939 67.2822 110.144 68.0675C110.574 69.7159 111.605 70.8546 113.191 71.4416C113.599 71.5924 114.02 71.6878 114.46 71.6578C115.021 71.9306 115.575 71.5756 116.134 71.6374C116.85 71.4166 117.524 71.1298 118.146 70.6763C118.92 70.112 119.407 69.3422 119.71 68.4816C120.058 67.4964 120.082 66.4399 119.84 65.4145C119.508 64.0105 118.72 62.9314 117.452 62.2583V62.2583ZM116.704 68.4509C116.333 68.9516 115.846 69.243 115.23 69.2677C114.901 69.2808 114.572 69.3048 114.241 69.1787C113.61 68.937 113.204 68.504 112.946 67.8714C112.718 67.3122 112.689 66.7315 112.767 66.1672C112.946 64.8634 114.021 63.9297 115.338 64.1199C115.707 64.1732 116.06 64.3394 116.355 64.617C116.744 64.9839 117.063 65.3816 117.141 65.9347C117.177 66.1852 117.208 66.4365 117.241 66.6872C117.249 67.3392 117.092 67.9282 116.704 68.4509V68.4509ZM107.253 69.0305C106.62 69.3041 105.973 69.5116 105.282 69.2683C104.717 69.0693 104.161 68.8774 103.809 68.3032C103.371 67.5893 103.209 66.8569 103.42 66.0344C103.586 65.3901 103.865 64.8243 104.44 64.476C105.066 64.097 105.726 63.9189 106.458 64.1914C106.65 64.2626 106.8 64.3389 106.868 64.521C106.982 64.8242 107.207 65.0241 107.432 65.2321H109.305C109.305 64.6671 109.309 64.152 109.302 63.6372C109.3 63.5401 109.266 63.4394 109.229 63.3474C108.958 62.6608 108.396 62.2918 107.763 62.0475C106.726 61.6479 105.651 61.6163 104.569 61.8303C103.545 62.0329 102.665 62.5081 101.946 63.2858C101.139 64.1595 100.679 65.1784 100.685 66.3951C100.687 66.6361 100.697 66.8778 100.683 67.1181C100.645 67.7993 100.873 68.4162 101.121 69.026C101.35 69.59 101.763 70.0136 102.177 70.4412C102.635 70.9142 103.193 71.2033 103.783 71.4446C104.444 71.7144 105.133 71.7685 105.839 71.7638C106.772 71.7571 107.651 71.5615 108.463 71.0977C108.97 70.8081 109.462 70.4869 109.816 70.0147C109.68 69.5777 109.076 68.5235 108.675 68.0224C108.254 68.4349 107.794 68.7966 107.253 69.0305V69.0305ZM98.7106 68.3679C98.2654 68.334 97.7814 68.5192 97.4683 68.9028C97.2017 69.2295 97.0332 69.6206 97.0382 70.0665C97.0477 70.9397 97.7756 71.6541 98.6599 71.6541C99.5794 71.6539 100.272 70.9604 100.287 70.0537C100.304 69.0175 99.5236 68.4297 98.7106 68.3679V68.3679Z" fill="#00A0F9"/>
<path d="M35.136 91V86.936L31.984 80.504H33.408L34.768 83.464C34.9387 83.848 35.104 84.2267 35.264 84.6C35.4347 84.9733 35.6053 85.3573 35.776 85.752H35.84C36.0213 85.3573 36.2027 84.9733 36.384 84.6C36.5653 84.2267 36.736 83.848 36.896 83.464L38.24 80.504H39.632L36.48 86.936V91H35.136ZM43.2891 91.192C42.6598 91.192 42.0678 91.032 41.5131 90.712C40.9691 90.392 40.5265 89.928 40.1851 89.32C39.8545 88.712 39.6891 87.9813 39.6891 87.128C39.6891 86.2533 39.8545 85.512 40.1851 84.904C40.5265 84.296 40.9691 83.832 41.5131 83.512C42.0678 83.192 42.6598 83.032 43.2891 83.032C43.9291 83.032 44.5211 83.192 45.0651 83.512C45.6091 83.832 46.0465 84.296 46.3771 84.904C46.7185 85.512 46.8891 86.2533 46.8891 87.128C46.8891 87.9813 46.7185 88.712 46.3771 89.32C46.0465 89.928 45.6091 90.392 45.0651 90.712C44.5211 91.032 43.9291 91.192 43.2891 91.192ZM43.2891 90.104C43.9611 90.104 44.4998 89.832 44.9051 89.288C45.3211 88.7333 45.5291 88.0133 45.5291 87.128C45.5291 86.232 45.3211 85.5067 44.9051 84.952C44.4998 84.3973 43.9611 84.12 43.2891 84.12C42.6278 84.12 42.0891 84.3973 41.6731 84.952C41.2571 85.5067 41.0491 86.232 41.0491 87.128C41.0491 88.0133 41.2571 88.7333 41.6731 89.288C42.0891 89.832 42.6278 90.104 43.2891 90.104ZM51.209 91.192C50.3877 91.192 49.785 90.936 49.401 90.424C49.017 89.9013 48.825 89.144 48.825 88.152V83.224H50.153V87.976C50.153 88.7013 50.265 89.2293 50.489 89.56C50.7237 89.8907 51.097 90.056 51.609 90.056C52.0143 90.056 52.3717 89.9547 52.681 89.752C53.001 89.5387 53.3423 89.2027 53.705 88.744V83.224H55.017V91H53.929L53.817 89.784H53.769C53.4063 90.2107 53.0223 90.552 52.617 90.808C52.2117 91.064 51.7423 91.192 51.209 91.192ZM63.9153 91.192C63.2326 91.192 62.6139 91.032 62.0593 90.712C61.5046 90.392 61.0673 89.928 60.7473 89.32C60.4273 88.712 60.2673 87.9813 60.2673 87.128C60.2673 86.2533 60.4379 85.512 60.7793 84.904C61.1313 84.296 61.5899 83.832 62.1553 83.512C62.7313 83.192 63.3499 83.032 64.0113 83.032C64.5233 83.032 64.9606 83.1227 65.3233 83.304C65.6966 83.4853 66.0166 83.6987 66.2833 83.944L65.6113 84.808C65.3873 84.6053 65.1473 84.44 64.8913 84.312C64.6459 84.184 64.3686 84.12 64.0593 84.12C63.5899 84.12 63.1686 84.248 62.7953 84.504C62.4326 84.7493 62.1446 85.1013 61.9313 85.56C61.7286 86.008 61.6273 86.5307 61.6273 87.128C61.6273 88.0133 61.8459 88.7333 62.2833 89.288C62.7313 89.832 63.3126 90.104 64.0273 90.104C64.3899 90.104 64.7259 90.0293 65.0353 89.88C65.3446 89.72 65.6166 89.5333 65.8513 89.32L66.4273 90.2C66.0753 90.5093 65.6859 90.7547 65.2593 90.936C64.8326 91.1067 64.3846 91.192 63.9153 91.192ZM69.7759 91.192C69.1252 91.192 68.5812 91 68.1439 90.616C67.7172 90.2213 67.5039 89.6773 67.5039 88.984C67.5039 88.1307 67.8825 87.48 68.6399 87.032C69.4079 86.5733 70.6185 86.2533 72.2719 86.072C72.2719 85.7413 72.2239 85.4267 72.1279 85.128C72.0425 84.8293 71.8825 84.5893 71.6479 84.408C71.4239 84.216 71.0985 84.12 70.6719 84.12C70.2239 84.12 69.8025 84.2053 69.4079 84.376C69.0132 84.5467 68.6612 84.7387 68.3519 84.952L67.8399 84.04C68.2025 83.8053 68.6452 83.5813 69.1679 83.368C69.7012 83.144 70.2772 83.032 70.8959 83.032C71.8452 83.032 72.5332 83.3253 72.9599 83.912C73.3865 84.488 73.5999 85.2613 73.5999 86.232V91H72.5119L72.3999 90.072H72.3519C71.9892 90.3707 71.5892 90.632 71.1519 90.856C70.7252 91.08 70.2665 91.192 69.7759 91.192ZM70.1599 90.136C70.5332 90.136 70.8852 90.0453 71.2159 89.864C71.5465 89.6827 71.8985 89.4267 72.2719 89.096V86.936C70.9812 87.096 70.0745 87.336 69.5519 87.656C69.0399 87.976 68.7839 88.3867 68.7839 88.888C68.7839 89.3253 68.9172 89.6453 69.1839 89.848C69.4505 90.04 69.7759 90.136 70.1599 90.136ZM76.0464 91V83.224H77.1344L77.2464 84.344H77.2944C77.6677 83.9707 78.0624 83.6613 78.4784 83.416C78.8944 83.16 79.369 83.032 79.9024 83.032C80.7237 83.032 81.321 83.2933 81.6944 83.816C82.0784 84.328 82.2704 85.08 82.2704 86.072V91H80.9584V86.248C80.9584 85.5227 80.841 84.9947 80.6064 84.664C80.3717 84.3333 79.9984 84.168 79.4864 84.168C79.0917 84.168 78.7344 84.2693 78.4144 84.472C78.105 84.6747 77.753 84.9733 77.3584 85.368V91H76.0464ZM91.0715 91.192C90.3888 91.192 89.7702 91.032 89.2155 90.712C88.6608 90.392 88.2235 89.928 87.9035 89.32C87.5835 88.712 87.4235 87.9813 87.4235 87.128C87.4235 86.2533 87.5942 85.512 87.9355 84.904C88.2875 84.296 88.7462 83.832 89.3115 83.512C89.8875 83.192 90.5062 83.032 91.1675 83.032C91.6795 83.032 92.1168 83.1227 92.4795 83.304C92.8528 83.4853 93.1728 83.6987 93.4395 83.944L92.7675 84.808C92.5435 84.6053 92.3035 84.44 92.0475 84.312C91.8022 84.184 91.5248 84.12 91.2155 84.12C90.7462 84.12 90.3248 84.248 89.9515 84.504C89.5888 84.7493 89.3008 85.1013 89.0875 85.56C88.8848 86.008 88.7835 86.5307 88.7835 87.128C88.7835 88.0133 89.0022 88.7333 89.4395 89.288C89.8875 89.832 90.4688 90.104 91.1835 90.104C91.5462 90.104 91.8822 90.0293 92.1915 89.88C92.5008 89.72 92.7728 89.5333 93.0075 89.32L93.5835 90.2C93.2315 90.5093 92.8422 90.7547 92.4155 90.936C91.9888 91.1067 91.5408 91.192 91.0715 91.192ZM95.2964 91V79.608H96.6084V82.712L96.5604 84.312C96.9337 83.96 97.323 83.6613 97.7284 83.416C98.1444 83.16 98.619 83.032 99.1524 83.032C99.9737 83.032 100.571 83.2933 100.944 83.816C101.328 84.328 101.52 85.08 101.52 86.072V91H100.208V86.248C100.208 85.5227 100.091 84.9947 99.8564 84.664C99.6217 84.3333 99.2484 84.168 98.7364 84.168C98.3417 84.168 97.9844 84.2693 97.6644 84.472C97.355 84.6747 97.003 84.9733 96.6084 85.368V91H95.2964ZM105.792 91.192C105.141 91.192 104.597 91 104.16 90.616C103.733 90.2213 103.52 89.6773 103.52 88.984C103.52 88.1307 103.898 87.48 104.656 87.032C105.424 86.5733 106.634 86.2533 108.288 86.072C108.288 85.7413 108.24 85.4267 108.144 85.128C108.058 84.8293 107.898 84.5893 107.664 84.408C107.44 84.216 107.114 84.12 106.688 84.12C106.24 84.12 105.818 84.2053 105.424 84.376C105.029 84.5467 104.677 84.7387 104.368 84.952L103.856 84.04C104.218 83.8053 104.661 83.5813 105.184 83.368C105.717 83.144 106.293 83.032 106.911 83.032C107.861 83.032 108.549 83.3253 108.976 83.912C109.402 84.488 109.616 85.2613 109.616 86.232V91H108.528L108.416 90.072H108.368C108.005 90.3707 107.605 90.632 107.168 90.856C106.741 91.08 106.282 91.192 105.792 91.192ZM106.176 90.136C106.549 90.136 106.901 90.0453 107.232 89.864C107.562 89.6827 107.914 89.4267 108.288 89.096V86.936C106.997 87.096 106.09 87.336 105.568 87.656C105.056 87.976 104.799 88.3867 104.799 88.888C104.799 89.3253 104.933 89.6453 105.2 89.848C105.466 90.04 105.792 90.136 106.176 90.136ZM112.062 91V83.224H113.15L113.262 84.632H113.31C113.577 84.1413 113.902 83.752 114.286 83.464C114.67 83.176 115.081 83.032 115.518 83.032C115.827 83.032 116.105 83.0853 116.35 83.192L116.094 84.344C115.966 84.3013 115.849 84.2693 115.742 84.248C115.635 84.2267 115.502 84.216 115.342 84.216C115.011 84.216 114.665 84.3493 114.302 84.616C113.95 84.8827 113.641 85.3467 113.374 86.008V91H112.062ZM120.077 94.584C119.127 94.584 118.354 94.4027 117.757 94.04C117.159 93.6773 116.861 93.16 116.861 92.488C116.861 92.1573 116.962 91.8373 117.165 91.528C117.367 91.2293 117.645 90.9627 117.997 90.728V90.664C117.805 90.5467 117.639 90.3813 117.501 90.168C117.373 89.9547 117.309 89.6987 117.309 89.4C117.309 89.0693 117.399 88.7813 117.581 88.536C117.762 88.2907 117.954 88.0987 118.157 87.96V87.896C117.901 87.6827 117.666 87.3947 117.453 87.032C117.25 86.6693 117.149 86.2587 117.149 85.8C117.149 85.2347 117.282 84.744 117.549 84.328C117.815 83.912 118.173 83.592 118.621 83.368C119.069 83.144 119.554 83.032 120.077 83.032C120.29 83.032 120.493 83.0533 120.685 83.096C120.877 83.128 121.042 83.1707 121.181 83.224H123.885V84.232H122.285C122.466 84.4027 122.615 84.632 122.733 84.92C122.861 85.1973 122.925 85.5013 122.925 85.832C122.925 86.3867 122.797 86.8667 122.541 87.272C122.285 87.6773 121.943 87.992 121.517 88.216C121.09 88.4293 120.61 88.536 120.077 88.536C119.661 88.536 119.271 88.4453 118.909 88.264C118.77 88.3813 118.653 88.5147 118.557 88.664C118.461 88.8027 118.413 88.9787 118.413 89.192C118.413 89.4373 118.509 89.64 118.701 89.8C118.903 89.96 119.266 90.04 119.789 90.04H121.293C122.199 90.04 122.877 90.1893 123.325 90.488C123.783 90.776 124.013 91.2453 124.013 91.896C124.013 92.376 123.853 92.8187 123.533 93.224C123.213 93.6293 122.759 93.9547 122.173 94.2C121.586 94.456 120.887 94.584 120.077 94.584ZM120.077 87.656C120.525 87.656 120.909 87.4907 121.229 87.16C121.559 86.8187 121.725 86.3653 121.725 85.8C121.725 85.2347 121.565 84.792 121.245 84.472C120.925 84.152 120.535 83.992 120.077 83.992C119.618 83.992 119.229 84.152 118.909 84.472C118.589 84.792 118.429 85.2347 118.429 85.8C118.429 86.3653 118.589 86.8187 118.909 87.16C119.239 87.4907 119.629 87.656 120.077 87.656ZM120.269 93.672C121.015 93.672 121.613 93.5067 122.061 93.176C122.509 92.856 122.733 92.4933 122.733 92.088C122.733 91.7253 122.594 91.4747 122.317 91.336C122.05 91.1973 121.666 91.128 121.165 91.128H119.821C119.671 91.128 119.506 91.1173 119.325 91.096C119.154 91.0747 118.983 91.0427 118.813 91C118.535 91.2027 118.333 91.416 118.205 91.64C118.077 91.864 118.013 92.088 118.013 92.312C118.013 92.728 118.21 93.0587 118.605 93.304C119.01 93.5493 119.565 93.672 120.269 93.672ZM128.448 91.192C127.755 91.192 127.126 91.032 126.56 90.712C125.995 90.3813 125.547 89.912 125.216 89.304C124.886 88.696 124.72 87.9707 124.72 87.128C124.72 86.2747 124.886 85.544 125.216 84.936C125.558 84.328 125.995 83.8587 126.528 83.528C127.062 83.1973 127.622 83.032 128.208 83.032C129.2 83.032 129.963 83.3627 130.496 84.024C131.04 84.6853 131.312 85.5707 131.312 86.68C131.312 86.8187 131.307 86.9573 131.296 87.096C131.296 87.224 131.286 87.336 131.264 87.432H126.016C126.07 88.2533 126.326 88.9093 126.784 89.4C127.254 89.8907 127.862 90.136 128.608 90.136C128.982 90.136 129.323 90.0827 129.632 89.976C129.952 89.8587 130.256 89.7093 130.544 89.528L131.008 90.392C130.678 90.6053 130.299 90.792 129.872 90.952C129.456 91.112 128.982 91.192 128.448 91.192ZM126 86.488H130.16C130.16 85.6987 129.99 85.1013 129.648 84.696C129.318 84.28 128.848 84.072 128.24 84.072C127.696 84.072 127.206 84.2853 126.768 84.712C126.342 85.128 126.086 85.72 126 86.488ZM138.885 91.192C138.053 91.192 137.472 90.952 137.141 90.472C136.821 89.992 136.661 89.368 136.661 88.6V84.296H135.509V83.304L136.725 83.224L136.885 81.048H137.989V83.224H140.085V84.296H137.989V88.616C137.989 89.096 138.074 89.4693 138.245 89.736C138.426 89.992 138.741 90.12 139.189 90.12C139.328 90.12 139.477 90.0987 139.637 90.056C139.797 90.0027 139.941 89.9547 140.069 89.912L140.325 90.904C140.112 90.9787 139.877 91.0427 139.621 91.096C139.376 91.16 139.13 91.192 138.885 91.192ZM141.843 91V79.608H143.155V82.712L143.107 84.312C143.481 83.96 143.87 83.6613 144.275 83.416C144.691 83.16 145.166 83.032 145.699 83.032C146.521 83.032 147.118 83.2933 147.491 83.816C147.875 84.328 148.067 85.08 148.067 86.072V91H146.755V86.248C146.755 85.5227 146.638 84.9947 146.403 84.664C146.169 84.3333 145.795 84.168 145.283 84.168C144.889 84.168 144.531 84.2693 144.211 84.472C143.902 84.6747 143.55 84.9733 143.155 85.368V91H141.843ZM153.698 91.192C153.005 91.192 152.376 91.032 151.81 90.712C151.245 90.3813 150.797 89.912 150.466 89.304C150.136 88.696 149.97 87.9707 149.97 87.128C149.97 86.2747 150.136 85.544 150.466 84.936C150.808 84.328 151.245 83.8587 151.778 83.528C152.312 83.1973 152.872 83.032 153.458 83.032C154.45 83.032 155.213 83.3627 155.746 84.024C156.29 84.6853 156.562 85.5707 156.562 86.68C156.562 86.8187 156.557 86.9573 156.546 87.096C156.546 87.224 156.536 87.336 156.514 87.432H151.266C151.32 88.2533 151.576 88.9093 152.034 89.4C152.504 89.8907 153.112 90.136 153.858 90.136C154.232 90.136 154.573 90.0827 154.882 89.976C155.202 89.8587 155.506 89.7093 155.794 89.528L156.258 90.392C155.928 90.6053 155.549 90.792 155.122 90.952C154.706 91.112 154.232 91.192 153.698 91.192ZM151.25 86.488H155.41C155.41 85.6987 155.24 85.1013 154.898 84.696C154.568 84.28 154.098 84.072 153.49 84.072C152.946 84.072 152.456 84.2853 152.018 84.712C151.592 85.128 151.336 85.72 151.25 86.488ZM164.311 94.584C163.362 94.584 162.588 94.4027 161.991 94.04C161.394 93.6773 161.095 93.16 161.095 92.488C161.095 92.1573 161.196 91.8373 161.399 91.528C161.602 91.2293 161.879 90.9627 162.231 90.728V90.664C162.039 90.5467 161.874 90.3813 161.735 90.168C161.607 89.9547 161.543 89.6987 161.543 89.4C161.543 89.0693 161.634 88.7813 161.815 88.536C161.996 88.2907 162.188 88.0987 162.391 87.96V87.896C162.135 87.6827 161.9 87.3947 161.687 87.032C161.484 86.6693 161.383 86.2587 161.383 85.8C161.383 85.2347 161.516 84.744 161.783 84.328C162.05 83.912 162.407 83.592 162.855 83.368C163.303 83.144 163.788 83.032 164.311 83.032C164.524 83.032 164.727 83.0533 164.919 83.096C165.111 83.128 165.276 83.1707 165.415 83.224H168.119V84.232H166.519C166.7 84.4027 166.85 84.632 166.967 84.92C167.095 85.1973 167.159 85.5013 167.159 85.832C167.159 86.3867 167.031 86.8667 166.775 87.272C166.519 87.6773 166.178 87.992 165.751 88.216C165.324 88.4293 164.844 88.536 164.311 88.536C163.895 88.536 163.506 88.4453 163.143 88.264C163.004 88.3813 162.887 88.5147 162.791 88.664C162.695 88.8027 162.647 88.9787 162.647 89.192C162.647 89.4373 162.743 89.64 162.935 89.8C163.138 89.96 163.5 90.04 164.023 90.04H165.527C166.434 90.04 167.111 90.1893 167.559 90.488C168.018 90.776 168.247 91.2453 168.247 91.896C168.247 92.376 168.087 92.8187 167.767 93.224C167.447 93.6293 166.994 93.9547 166.407 94.2C165.82 94.456 165.122 94.584 164.311 94.584ZM164.311 87.656C164.759 87.656 165.143 87.4907 165.463 87.16C165.794 86.8187 165.959 86.3653 165.959 85.8C165.959 85.2347 165.799 84.792 165.479 84.472C165.159 84.152 164.77 83.992 164.311 83.992C163.852 83.992 163.463 84.152 163.143 84.472C162.823 84.792 162.663 85.2347 162.663 85.8C162.663 86.3653 162.823 86.8187 163.143 87.16C163.474 87.4907 163.863 87.656 164.311 87.656ZM164.503 93.672C165.25 93.672 165.847 93.5067 166.295 93.176C166.743 92.856 166.967 92.4933 166.967 92.088C166.967 91.7253 166.828 91.4747 166.551 91.336C166.284 91.1973 165.9 91.128 165.399 91.128H164.055C163.906 91.128 163.74 91.1173 163.559 91.096C163.388 91.0747 163.218 91.0427 163.047 91C162.77 91.2027 162.567 91.416 162.439 91.64C162.311 91.864 162.247 92.088 162.247 92.312C162.247 92.728 162.444 93.0587 162.839 93.304C163.244 93.5493 163.799 93.672 164.503 93.672ZM172.022 91.192C171.2 91.192 170.598 90.936 170.214 90.424C169.83 89.9013 169.638 89.144 169.638 88.152V83.224H170.966V87.976C170.966 88.7013 171.078 89.2293 171.302 89.56C171.536 89.8907 171.91 90.056 172.422 90.056C172.827 90.056 173.184 89.9547 173.494 89.752C173.814 89.5387 174.155 89.2027 174.518 88.744V83.224H175.83V91H174.742L174.63 89.784H174.582C174.219 90.2107 173.835 90.552 173.43 90.808C173.024 91.064 172.555 91.192 172.022 91.192ZM181.605 91.192C180.911 91.192 180.282 91.032 179.717 90.712C179.151 90.3813 178.703 89.912 178.373 89.304C178.042 88.696 177.877 87.9707 177.877 87.128C177.877 86.2747 178.042 85.544 178.373 84.936C178.714 84.328 179.151 83.8587 179.685 83.528C180.218 83.1973 180.778 83.032 181.365 83.032C182.357 83.032 183.119 83.3627 183.653 84.024C184.197 84.6853 184.469 85.5707 184.469 86.68C184.469 86.8187 184.463 86.9573 184.453 87.096C184.453 87.224 184.442 87.336 184.421 87.432H179.173C179.226 88.2533 179.482 88.9093 179.941 89.4C180.41 89.8907 181.018 90.136 181.765 90.136C182.138 90.136 182.479 90.0827 182.789 89.976C183.109 89.8587 183.413 89.7093 183.701 89.528L184.165 90.392C183.834 90.6053 183.455 90.792 183.029 90.952C182.613 91.112 182.138 91.192 181.605 91.192ZM179.157 86.488H183.317C183.317 85.6987 183.146 85.1013 182.805 84.696C182.474 84.28 182.005 84.072 181.397 84.072C180.853 84.072 180.362 84.2853 179.925 84.712C179.498 85.128 179.242 85.72 179.157 86.488ZM188.422 91.192C187.867 91.192 187.339 91.0907 186.838 90.888C186.337 90.6747 185.899 90.4187 185.526 90.12L186.182 89.24C186.523 89.5067 186.875 89.7307 187.238 89.912C187.601 90.0827 188.011 90.168 188.47 90.168C188.982 90.168 189.366 90.0507 189.622 89.816C189.878 89.5707 190.006 89.2827 190.006 88.952C190.006 88.6853 189.915 88.4613 189.734 88.28C189.563 88.0987 189.339 87.9493 189.062 87.832C188.795 87.704 188.518 87.5867 188.23 87.48C187.867 87.3413 187.51 87.1867 187.158 87.016C186.806 86.8347 186.518 86.6053 186.294 86.328C186.07 86.04 185.958 85.6773 185.958 85.24C185.958 84.6107 186.193 84.088 186.662 83.672C187.142 83.2453 187.803 83.032 188.646 83.032C189.126 83.032 189.574 83.1173 189.99 83.288C190.406 83.4587 190.763 83.6667 191.062 83.912L190.422 84.744C190.155 84.5413 189.878 84.376 189.59 84.248C189.302 84.12 188.987 84.056 188.646 84.056C188.155 84.056 187.793 84.168 187.558 84.392C187.334 84.616 187.222 84.8773 187.222 85.176C187.222 85.4213 187.302 85.624 187.462 85.784C187.622 85.9333 187.83 86.0667 188.086 86.184C188.342 86.2907 188.614 86.4027 188.902 86.52C189.275 86.6587 189.643 86.8187 190.006 87C190.369 87.1707 190.667 87.4053 190.902 87.704C191.147 87.992 191.27 88.3813 191.27 88.872C191.27 89.288 191.158 89.672 190.934 90.024C190.721 90.376 190.401 90.6587 189.974 90.872C189.558 91.0853 189.041 91.192 188.422 91.192ZM195.229 91.192C194.397 91.192 193.815 90.952 193.485 90.472C193.165 89.992 193.005 89.368 193.005 88.6V84.296H191.853V83.304L193.069 83.224L193.229 81.048H194.333V83.224H196.429V84.296H194.333V88.616C194.333 89.096 194.418 89.4693 194.589 89.736C194.77 89.992 195.085 90.12 195.533 90.12C195.671 90.12 195.821 90.0987 195.981 90.056C196.141 90.0027 196.285 89.9547 196.413 89.912L196.669 90.904C196.455 90.9787 196.221 91.0427 195.965 91.096C195.719 91.16 195.474 91.192 195.229 91.192ZM198.251 84.104L197.883 83.496C198.288 83.2293 198.587 82.9467 198.779 82.648C198.982 82.3387 199.083 81.9547 199.083 81.496C199.051 81.5067 199.008 81.512 198.955 81.512C198.731 81.512 198.534 81.4427 198.363 81.304C198.192 81.1653 198.107 80.968 198.107 80.712C198.107 80.4347 198.187 80.216 198.347 80.056C198.507 79.896 198.71 79.816 198.955 79.816C199.264 79.816 199.51 79.944 199.691 80.2C199.872 80.4453 199.963 80.8027 199.963 81.272C199.963 81.912 199.814 82.4667 199.515 82.936C199.227 83.3947 198.806 83.784 198.251 84.104ZM203.422 91.192C202.867 91.192 202.339 91.0907 201.838 90.888C201.337 90.6747 200.899 90.4187 200.526 90.12L201.182 89.24C201.523 89.5067 201.875 89.7307 202.238 89.912C202.601 90.0827 203.011 90.168 203.47 90.168C203.982 90.168 204.366 90.0507 204.622 89.816C204.878 89.5707 205.006 89.2827 205.006 88.952C205.006 88.6853 204.915 88.4613 204.734 88.28C204.563 88.0987 204.339 87.9493 204.062 87.832C203.795 87.704 203.518 87.5867 203.23 87.48C202.867 87.3413 202.51 87.1867 202.158 87.016C201.806 86.8347 201.518 86.6053 201.294 86.328C201.07 86.04 200.958 85.6773 200.958 85.24C200.958 84.6107 201.193 84.088 201.662 83.672C202.142 83.2453 202.803 83.032 203.646 83.032C204.126 83.032 204.574 83.1173 204.99 83.288C205.406 83.4587 205.763 83.6667 206.062 83.912L205.422 84.744C205.155 84.5413 204.878 84.376 204.59 84.248C204.302 84.12 203.987 84.056 203.646 84.056C203.155 84.056 202.793 84.168 202.558 84.392C202.334 84.616 202.222 84.8773 202.222 85.176C202.222 85.4213 202.302 85.624 202.462 85.784C202.622 85.9333 202.83 86.0667 203.086 86.184C203.342 86.2907 203.614 86.4027 203.902 86.52C204.275 86.6587 204.643 86.8187 205.006 87C205.369 87.1707 205.667 87.4053 205.902 87.704C206.147 87.992 206.27 88.3813 206.27 88.872C206.27 89.288 206.158 89.672 205.934 90.024C205.721 90.376 205.401 90.6587 204.974 90.872C204.558 91.0853 204.041 91.192 203.422 91.192ZM214.368 91.192C213.686 91.192 213.067 91.032 212.512 90.712C211.958 90.392 211.52 89.928 211.2 89.32C210.88 88.712 210.72 87.9813 210.72 87.128C210.72 86.2533 210.891 85.512 211.232 84.904C211.584 84.296 212.043 83.832 212.608 83.512C213.184 83.192 213.803 83.032 214.464 83.032C214.976 83.032 215.414 83.1227 215.776 83.304C216.15 83.4853 216.47 83.6987 216.736 83.944L216.064 84.808C215.84 84.6053 215.6 84.44 215.344 84.312C215.099 84.184 214.822 84.12 214.512 84.12C214.043 84.12 213.622 84.248 213.248 84.504C212.886 84.7493 212.598 85.1013 212.384 85.56C212.182 86.008 212.08 86.5307 212.08 87.128C212.08 88.0133 212.299 88.7333 212.736 89.288C213.184 89.832 213.766 90.104 214.48 90.104C214.843 90.104 215.179 90.0293 215.488 89.88C215.798 89.72 216.07 89.5333 216.304 89.32L216.88 90.2C216.528 90.5093 216.139 90.7547 215.712 90.936C215.286 91.1067 214.838 91.192 214.368 91.192ZM218.593 91V83.224H219.681L219.793 84.632H219.841C220.108 84.1413 220.433 83.752 220.817 83.464C221.201 83.176 221.612 83.032 222.049 83.032C222.359 83.032 222.636 83.0853 222.881 83.192L222.625 84.344C222.497 84.3013 222.38 84.2693 222.273 84.248C222.167 84.2267 222.033 84.216 221.873 84.216C221.543 84.216 221.196 84.3493 220.833 84.616C220.481 84.8827 220.172 85.3467 219.905 86.008V91H218.593ZM227.136 91.192C226.443 91.192 225.813 91.032 225.248 90.712C224.683 90.3813 224.235 89.912 223.904 89.304C223.573 88.696 223.408 87.9707 223.408 87.128C223.408 86.2747 223.573 85.544 223.904 84.936C224.245 84.328 224.683 83.8587 225.216 83.528C225.749 83.1973 226.309 83.032 226.896 83.032C227.888 83.032 228.651 83.3627 229.184 84.024C229.728 84.6853 230 85.5707 230 86.68C230 86.8187 229.995 86.9573 229.984 87.096C229.984 87.224 229.973 87.336 229.952 87.432H224.704C224.757 88.2533 225.013 88.9093 225.472 89.4C225.941 89.8907 226.549 90.136 227.296 90.136C227.669 90.136 228.011 90.0827 228.32 89.976C228.64 89.8587 228.944 89.7093 229.232 89.528L229.696 90.392C229.365 90.6053 228.987 90.792 228.56 90.952C228.144 91.112 227.669 91.192 227.136 91.192ZM224.688 86.488H228.848C228.848 85.6987 228.677 85.1013 228.336 84.696C228.005 84.28 227.536 84.072 226.928 84.072C226.384 84.072 225.893 84.2853 225.456 84.712C225.029 85.128 224.773 85.72 224.688 86.488ZM234.577 91.192C233.607 91.192 232.828 90.84 232.241 90.136C231.655 89.4213 231.361 88.4187 231.361 87.128C231.361 86.2853 231.516 85.56 231.825 84.952C232.145 84.3333 232.561 83.8587 233.073 83.528C233.596 83.1973 234.151 83.032 234.737 83.032C235.185 83.032 235.575 83.112 235.905 83.272C236.236 83.432 236.572 83.6507 236.913 83.928L236.849 82.6V79.608H238.177V91H237.089L236.977 90.088H236.929C236.631 90.3867 236.279 90.648 235.873 90.872C235.468 91.0853 235.036 91.192 234.577 91.192ZM234.865 90.088C235.548 90.088 236.209 89.7307 236.849 89.016V84.952C236.519 84.6533 236.199 84.4453 235.889 84.328C235.591 84.2 235.281 84.136 234.961 84.136C234.545 84.136 234.167 84.264 233.825 84.52C233.495 84.7653 233.228 85.112 233.025 85.56C232.823 85.9973 232.721 86.5147 232.721 87.112C232.721 88.04 232.908 88.7707 233.281 89.304C233.655 89.8267 234.183 90.088 234.865 90.088ZM240.796 91V83.224H242.108V91H240.796ZM241.468 81.624C241.212 81.624 240.999 81.5493 240.828 81.4C240.668 81.24 240.588 81.0267 240.588 80.76C240.588 80.504 240.668 80.296 240.828 80.136C240.999 79.976 241.212 79.896 241.468 79.896C241.724 79.896 241.932 79.976 242.092 80.136C242.263 80.296 242.348 80.504 242.348 80.76C242.348 81.0267 242.263 81.24 242.092 81.4C241.932 81.5493 241.724 81.624 241.468 81.624ZM247.182 91.192C246.35 91.192 245.769 90.952 245.438 90.472C245.118 89.992 244.958 89.368 244.958 88.6V84.296H243.806V83.304L245.022 83.224L245.182 81.048H246.286V83.224H248.382V84.296H246.286V88.616C246.286 89.096 246.371 89.4693 246.542 89.736C246.723 89.992 247.038 90.12 247.486 90.12C247.625 90.12 247.774 90.0987 247.934 90.056C248.094 90.0027 248.238 89.9547 248.366 89.912L248.622 90.904C248.409 90.9787 248.174 91.0427 247.918 91.096C247.673 91.16 247.427 91.192 247.182 91.192ZM256.415 91.192C255.733 91.192 255.114 91.032 254.559 90.712C254.005 90.392 253.567 89.928 253.247 89.32C252.927 88.712 252.767 87.9813 252.767 87.128C252.767 86.2533 252.938 85.512 253.279 84.904C253.631 84.296 254.09 83.832 254.655 83.512C255.231 83.192 255.85 83.032 256.511 83.032C257.023 83.032 257.461 83.1227 257.823 83.304C258.197 83.4853 258.517 83.6987 258.783 83.944L258.111 84.808C257.887 84.6053 257.647 84.44 257.391 84.312C257.146 84.184 256.869 84.12 256.559 84.12C256.09 84.12 255.669 84.248 255.295 84.504C254.933 84.7493 254.645 85.1013 254.431 85.56C254.229 86.008 254.127 86.5307 254.127 87.128C254.127 88.0133 254.346 88.7333 254.783 89.288C255.231 89.832 255.813 90.104 256.527 90.104C256.89 90.104 257.226 90.0293 257.535 89.88C257.845 89.72 258.117 89.5333 258.351 89.32L258.927 90.2C258.575 90.5093 258.186 90.7547 257.759 90.936C257.333 91.1067 256.885 91.192 256.415 91.192ZM262.276 91.192C261.625 91.192 261.081 91 260.644 90.616C260.217 90.2213 260.004 89.6773 260.004 88.984C260.004 88.1307 260.383 87.48 261.14 87.032C261.908 86.5733 263.119 86.2533 264.772 86.072C264.772 85.7413 264.724 85.4267 264.628 85.128C264.543 84.8293 264.383 84.5893 264.148 84.408C263.924 84.216 263.599 84.12 263.172 84.12C262.724 84.12 262.303 84.2053 261.908 84.376C261.513 84.5467 261.161 84.7387 260.852 84.952L260.34 84.04C260.703 83.8053 261.145 83.5813 261.668 83.368C262.201 83.144 262.777 83.032 263.396 83.032C264.345 83.032 265.033 83.3253 265.46 83.912C265.887 84.488 266.1 85.2613 266.1 86.232V91H265.012L264.9 90.072H264.852C264.489 90.3707 264.089 90.632 263.652 90.856C263.225 91.08 262.767 91.192 262.276 91.192ZM262.66 90.136C263.033 90.136 263.385 90.0453 263.716 89.864C264.047 89.6827 264.399 89.4267 264.772 89.096V86.936C263.481 87.096 262.575 87.336 262.052 87.656C261.54 87.976 261.284 88.3867 261.284 88.888C261.284 89.3253 261.417 89.6453 261.684 89.848C261.951 90.04 262.276 90.136 262.66 90.136ZM268.546 91V83.224H269.634L269.746 84.632H269.794C270.061 84.1413 270.386 83.752 270.77 83.464C271.154 83.176 271.565 83.032 272.002 83.032C272.312 83.032 272.589 83.0853 272.834 83.192L272.578 84.344C272.45 84.3013 272.333 84.2693 272.226 84.248C272.12 84.2267 271.986 84.216 271.826 84.216C271.496 84.216 271.149 84.3493 270.786 84.616C270.434 84.8827 270.125 85.3467 269.858 86.008V91H268.546ZM276.593 91.192C275.622 91.192 274.844 90.84 274.257 90.136C273.67 89.4213 273.377 88.4187 273.377 87.128C273.377 86.2853 273.532 85.56 273.841 84.952C274.161 84.3333 274.577 83.8587 275.089 83.528C275.612 83.1973 276.166 83.032 276.753 83.032C277.201 83.032 277.59 83.112 277.921 83.272C278.252 83.432 278.588 83.6507 278.929 83.928L278.865 82.6V79.608H280.193V91H279.105L278.993 90.088H278.945C278.646 90.3867 278.294 90.648 277.889 90.872C277.484 91.0853 277.052 91.192 276.593 91.192ZM276.881 90.088C277.564 90.088 278.225 89.7307 278.865 89.016V84.952C278.534 84.6533 278.214 84.4453 277.905 84.328C277.606 84.2 277.297 84.136 276.977 84.136C276.561 84.136 276.182 84.264 275.841 84.52C275.51 84.7653 275.244 85.112 275.041 85.56C274.838 85.9973 274.737 86.5147 274.737 87.112C274.737 88.04 274.924 88.7707 275.297 89.304C275.67 89.8267 276.198 90.088 276.881 90.088ZM288.047 91.192C287.492 91.192 286.964 91.0907 286.463 90.888C285.962 90.6747 285.524 90.4187 285.151 90.12L285.807 89.24C286.148 89.5067 286.5 89.7307 286.863 89.912C287.226 90.0827 287.636 90.168 288.095 90.168C288.607 90.168 288.991 90.0507 289.247 89.816C289.503 89.5707 289.631 89.2827 289.631 88.952C289.631 88.6853 289.54 88.4613 289.359 88.28C289.188 88.0987 288.964 87.9493 288.687 87.832C288.42 87.704 288.143 87.5867 287.855 87.48C287.492 87.3413 287.135 87.1867 286.783 87.016C286.431 86.8347 286.143 86.6053 285.919 86.328C285.695 86.04 285.583 85.6773 285.583 85.24C285.583 84.6107 285.818 84.088 286.287 83.672C286.767 83.2453 287.428 83.032 288.271 83.032C288.751 83.032 289.199 83.1173 289.615 83.288C290.031 83.4587 290.388 83.6667 290.687 83.912L290.047 84.744C289.78 84.5413 289.503 84.376 289.215 84.248C288.927 84.12 288.612 84.056 288.271 84.056C287.78 84.056 287.418 84.168 287.183 84.392C286.959 84.616 286.847 84.8773 286.847 85.176C286.847 85.4213 286.927 85.624 287.087 85.784C287.247 85.9333 287.455 86.0667 287.711 86.184C287.967 86.2907 288.239 86.4027 288.527 86.52C288.9 86.6587 289.268 86.8187 289.631 87C289.994 87.1707 290.292 87.4053 290.527 87.704C290.772 87.992 290.895 88.3813 290.895 88.872C290.895 89.288 290.783 89.672 290.559 90.024C290.346 90.376 290.026 90.6587 289.599 90.872C289.183 91.0853 288.666 91.192 288.047 91.192ZM295.87 91.192C295.177 91.192 294.548 91.032 293.982 90.712C293.417 90.3813 292.969 89.912 292.638 89.304C292.308 88.696 292.142 87.9707 292.142 87.128C292.142 86.2747 292.308 85.544 292.638 84.936C292.98 84.328 293.417 83.8587 293.95 83.528C294.484 83.1973 295.044 83.032 295.63 83.032C296.622 83.032 297.385 83.3627 297.918 84.024C298.462 84.6853 298.734 85.5707 298.734 86.68C298.734 86.8187 298.729 86.9573 298.718 87.096C298.718 87.224 298.708 87.336 298.686 87.432H293.438C293.492 88.2533 293.748 88.9093 294.206 89.4C294.676 89.8907 295.284 90.136 296.03 90.136C296.404 90.136 296.745 90.0827 297.054 89.976C297.374 89.8587 297.678 89.7093 297.966 89.528L298.43 90.392C298.1 90.6053 297.721 90.792 297.294 90.952C296.878 91.112 296.404 91.192 295.87 91.192ZM293.422 86.488H297.582C297.582 85.6987 297.412 85.1013 297.07 84.696C296.74 84.28 296.27 84.072 295.662 84.072C295.118 84.072 294.628 84.2853 294.19 84.712C293.764 85.128 293.508 85.72 293.422 86.488ZM303.728 91.192C303.045 91.192 302.426 91.032 301.872 90.712C301.317 90.392 300.88 89.928 300.56 89.32C300.24 88.712 300.08 87.9813 300.08 87.128C300.08 86.2533 300.25 85.512 300.592 84.904C300.944 84.296 301.402 83.832 301.968 83.512C302.544 83.192 303.162 83.032 303.824 83.032C304.336 83.032 304.773 83.1227 305.136 83.304C305.509 83.4853 305.829 83.6987 306.096 83.944L305.424 84.808C305.2 84.6053 304.96 84.44 304.704 84.312C304.458 84.184 304.181 84.12 303.872 84.12C303.402 84.12 302.981 84.248 302.608 84.504C302.245 84.7493 301.957 85.1013 301.744 85.56C301.541 86.008 301.44 86.5307 301.44 87.128C301.44 88.0133 301.658 88.7333 302.096 89.288C302.544 89.832 303.125 90.104 303.84 90.104C304.202 90.104 304.538 90.0293 304.848 89.88C305.157 89.72 305.429 89.5333 305.664 89.32L306.24 90.2C305.888 90.5093 305.498 90.7547 305.072 90.936C304.645 91.1067 304.197 91.192 303.728 91.192ZM310.225 91.192C309.403 91.192 308.801 90.936 308.417 90.424C308.033 89.9013 307.841 89.144 307.841 88.152V83.224H309.169V87.976C309.169 88.7013 309.281 89.2293 309.505 89.56C309.739 89.8907 310.113 90.056 310.625 90.056C311.03 90.056 311.387 89.9547 311.697 89.752C312.017 89.5387 312.358 89.2027 312.721 88.744V83.224H314.033V91H312.945L312.833 89.784H312.785C312.422 90.2107 312.038 90.552 311.633 90.808C311.227 91.064 310.758 91.192 310.225 91.192ZM316.656 91V83.224H317.744L317.856 84.632H317.904C318.17 84.1413 318.496 83.752 318.88 83.464C319.264 83.176 319.674 83.032 320.112 83.032C320.421 83.032 320.698 83.0853 320.944 83.192L320.688 84.344C320.56 84.3013 320.442 84.2693 320.336 84.248C320.229 84.2267 320.096 84.216 319.936 84.216C319.605 84.216 319.258 84.3493 318.896 84.616C318.544 84.8827 318.234 85.3467 317.968 86.008V91H316.656ZM325.198 91.192C324.505 91.192 323.876 91.032 323.31 90.712C322.745 90.3813 322.297 89.912 321.966 89.304C321.636 88.696 321.47 87.9707 321.47 87.128C321.47 86.2747 321.636 85.544 321.966 84.936C322.308 84.328 322.745 83.8587 323.278 83.528C323.812 83.1973 324.372 83.032 324.958 83.032C325.95 83.032 326.713 83.3627 327.246 84.024C327.79 84.6853 328.062 85.5707 328.062 86.68C328.062 86.8187 328.057 86.9573 328.046 87.096C328.046 87.224 328.036 87.336 328.014 87.432H322.766C322.82 88.2533 323.076 88.9093 323.534 89.4C324.004 89.8907 324.612 90.136 325.358 90.136C325.732 90.136 326.073 90.0827 326.382 89.976C326.702 89.8587 327.006 89.7093 327.294 89.528L327.758 90.392C327.428 90.6053 327.049 90.792 326.622 90.952C326.206 91.112 325.732 91.192 325.198 91.192ZM322.75 86.488H326.91C326.91 85.6987 326.74 85.1013 326.398 84.696C326.068 84.28 325.598 84.072 324.99 84.072C324.446 84.072 323.956 84.2853 323.518 84.712C323.092 85.128 322.836 85.72 322.75 86.488ZM331.376 91.192C330.885 91.192 330.528 91.0427 330.304 90.744C330.091 90.4347 329.984 89.9973 329.984 89.432V79.608H331.296V89.528C331.296 89.7307 331.333 89.88 331.408 89.976C331.483 90.0613 331.568 90.104 331.664 90.104C331.707 90.104 331.744 90.104 331.776 90.104C331.819 90.0933 331.877 90.0827 331.952 90.072L332.128 91.064C332.043 91.1067 331.941 91.1387 331.824 91.16C331.707 91.1813 331.557 91.192 331.376 91.192ZM334.19 94.344C334.019 94.344 333.854 94.328 333.694 94.296C333.545 94.264 333.406 94.2267 333.278 94.184L333.534 93.144C333.619 93.1653 333.715 93.1867 333.822 93.208C333.929 93.24 334.03 93.256 334.126 93.256C334.563 93.256 334.926 93.096 335.214 92.776C335.502 92.4667 335.726 92.072 335.886 91.592L336.062 91.016L332.942 83.224H334.302L335.886 87.528C336.003 87.8587 336.126 88.216 336.254 88.6C336.393 88.984 336.521 89.3573 336.638 89.72H336.702C336.819 89.368 336.931 89 337.038 88.616C337.145 88.232 337.251 87.8693 337.358 87.528L338.75 83.224H340.03L337.102 91.64C336.921 92.152 336.702 92.6107 336.446 93.016C336.201 93.4213 335.891 93.7413 335.518 93.976C335.155 94.2213 334.713 94.344 334.19 94.344ZM346.414 91L343.614 83.224H344.974L346.446 87.64C346.563 88.024 346.681 88.408 346.798 88.792C346.926 89.176 347.049 89.5547 347.166 89.928H347.23C347.347 89.5547 347.465 89.176 347.582 88.792C347.71 88.408 347.827 88.024 347.934 87.64L349.406 83.224H350.702L347.95 91H346.414ZM352.203 91V83.224H353.515V91H352.203ZM352.875 81.624C352.619 81.624 352.405 81.5493 352.235 81.4C352.075 81.24 351.995 81.0267 351.995 80.76C351.995 80.504 352.075 80.296 352.235 80.136C352.405 79.976 352.619 79.896 352.875 79.896C353.131 79.896 353.339 79.976 353.499 80.136C353.669 80.296 353.755 80.504 353.755 80.76C353.755 81.0267 353.669 81.24 353.499 81.4C353.339 81.5493 353.131 81.624 352.875 81.624ZM357.932 91.192C357.281 91.192 356.737 91 356.3 90.616C355.873 90.2213 355.66 89.6773 355.66 88.984C355.66 88.1307 356.039 87.48 356.796 87.032C357.564 86.5733 358.775 86.2533 360.428 86.072C360.428 85.7413 360.38 85.4267 360.284 85.128C360.199 84.8293 360.039 84.5893 359.804 84.408C359.58 84.216 359.255 84.12 358.828 84.12C358.38 84.12 357.959 84.2053 357.564 84.376C357.169 84.5467 356.817 84.7387 356.508 84.952L355.996 84.04C356.359 83.8053 356.801 83.5813 357.324 83.368C357.857 83.144 358.433 83.032 359.052 83.032C360.001 83.032 360.689 83.3253 361.116 83.912C361.543 84.488 361.756 85.2613 361.756 86.232V91H360.668L360.556 90.072H360.508C360.145 90.3707 359.745 90.632 359.308 90.856C358.881 91.08 358.423 91.192 357.932 91.192ZM358.316 90.136C358.689 90.136 359.041 90.0453 359.372 89.864C359.703 89.6827 360.055 89.4267 360.428 89.096V86.936C359.137 87.096 358.231 87.336 357.708 87.656C357.196 87.976 356.94 88.3867 356.94 88.888C356.94 89.3253 357.073 89.6453 357.34 89.848C357.607 90.04 357.932 90.136 358.316 90.136ZM367.534 91V80.504H368.862V89.864H373.454V91H367.534ZM378.024 91.192C377.394 91.192 376.802 91.032 376.248 90.712C375.704 90.392 375.261 89.928 374.92 89.32C374.589 88.712 374.424 87.9813 374.424 87.128C374.424 86.2533 374.589 85.512 374.92 84.904C375.261 84.296 375.704 83.832 376.248 83.512C376.802 83.192 377.394 83.032 378.024 83.032C378.664 83.032 379.256 83.192 379.8 83.512C380.344 83.832 380.781 84.296 381.112 84.904C381.453 85.512 381.624 86.2533 381.624 87.128C381.624 87.9813 381.453 88.712 381.112 89.32C380.781 89.928 380.344 90.392 379.8 90.712C379.256 91.032 378.664 91.192 378.024 91.192ZM378.024 90.104C378.696 90.104 379.234 89.832 379.64 89.288C380.056 88.7333 380.264 88.0133 380.264 87.128C380.264 86.232 380.056 85.5067 379.64 84.952C379.234 84.3973 378.696 84.12 378.024 84.12C377.362 84.12 376.824 84.3973 376.408 84.952C375.992 85.5067 375.784 86.232 375.784 87.128C375.784 88.0133 375.992 88.7333 376.408 89.288C376.824 89.832 377.362 90.104 378.024 90.104ZM386.327 91.192C385.357 91.192 384.578 90.84 383.991 90.136C383.405 89.4213 383.111 88.4187 383.111 87.128C383.111 86.2853 383.266 85.56 383.575 84.952C383.895 84.3333 384.311 83.8587 384.823 83.528C385.346 83.1973 385.901 83.032 386.487 83.032C386.935 83.032 387.325 83.112 387.655 83.272C387.986 83.432 388.322 83.6507 388.663 83.928L388.599 82.6V79.608H389.927V91H388.839L388.727 90.088H388.679C388.381 90.3867 388.029 90.648 387.623 90.872C387.218 91.0853 386.786 91.192 386.327 91.192ZM386.615 90.088C387.298 90.088 387.959 89.7307 388.599 89.016V84.952C388.269 84.6533 387.949 84.4453 387.639 84.328C387.341 84.2 387.031 84.136 386.711 84.136C386.295 84.136 385.917 84.264 385.575 84.52C385.245 84.7653 384.978 85.112 384.775 85.56C384.573 85.9973 384.471 86.5147 384.471 87.112C384.471 88.04 384.658 88.7707 385.031 89.304C385.405 89.8267 385.933 90.088 386.615 90.088ZM395.17 94.584C394.221 94.584 393.448 94.4027 392.85 94.04C392.253 93.6773 391.954 93.16 391.954 92.488C391.954 92.1573 392.056 91.8373 392.258 91.528C392.461 91.2293 392.738 90.9627 393.09 90.728V90.664C392.898 90.5467 392.733 90.3813 392.594 90.168C392.466 89.9547 392.402 89.6987 392.402 89.4C392.402 89.0693 392.493 88.7813 392.674 88.536C392.856 88.2907 393.048 88.0987 393.25 87.96V87.896C392.994 87.6827 392.76 87.3947 392.546 87.032C392.344 86.6693 392.242 86.2587 392.242 85.8C392.242 85.2347 392.376 84.744 392.642 84.328C392.909 83.912 393.266 83.592 393.714 83.368C394.162 83.144 394.648 83.032 395.17 83.032C395.384 83.032 395.586 83.0533 395.778 83.096C395.97 83.128 396.136 83.1707 396.274 83.224H398.978V84.232H397.378C397.56 84.4027 397.709 84.632 397.826 84.92C397.954 85.1973 398.018 85.5013 398.018 85.832C398.018 86.3867 397.89 86.8667 397.634 87.272C397.378 87.6773 397.037 87.992 396.61 88.216C396.184 88.4293 395.704 88.536 395.17 88.536C394.754 88.536 394.365 88.4453 394.002 88.264C393.864 88.3813 393.746 88.5147 393.65 88.664C393.554 88.8027 393.506 88.9787 393.506 89.192C393.506 89.4373 393.602 89.64 393.794 89.8C393.997 89.96 394.36 90.04 394.882 90.04H396.386C397.293 90.04 397.97 90.1893 398.418 90.488C398.877 90.776 399.106 91.2453 399.106 91.896C399.106 92.376 398.946 92.8187 398.626 93.224C398.306 93.6293 397.853 93.9547 397.266 94.2C396.68 94.456 395.981 94.584 395.17 94.584ZM395.17 87.656C395.618 87.656 396.002 87.4907 396.322 87.16C396.653 86.8187 396.818 86.3653 396.818 85.8C396.818 85.2347 396.658 84.792 396.338 84.472C396.018 84.152 395.629 83.992 395.17 83.992C394.712 83.992 394.322 84.152 394.002 84.472C393.682 84.792 393.522 85.2347 393.522 85.8C393.522 86.3653 393.682 86.8187 394.002 87.16C394.333 87.4907 394.722 87.656 395.17 87.656ZM395.362 93.672C396.109 93.672 396.706 93.5067 397.154 93.176C397.602 92.856 397.826 92.4933 397.826 92.088C397.826 91.7253 397.688 91.4747 397.41 91.336C397.144 91.1973 396.76 91.128 396.258 91.128H394.914C394.765 91.128 394.6 91.1173 394.418 91.096C394.248 91.0747 394.077 91.0427 393.906 91C393.629 91.2027 393.426 91.416 393.298 91.64C393.17 91.864 393.106 92.088 393.106 92.312C393.106 92.728 393.304 93.0587 393.698 93.304C394.104 93.5493 394.658 93.672 395.362 93.672ZM400.609 91V83.224H401.921V91H400.609ZM401.281 81.624C401.025 81.624 400.812 81.5493 400.641 81.4C400.481 81.24 400.401 81.0267 400.401 80.76C400.401 80.504 400.481 80.296 400.641 80.136C400.812 79.976 401.025 79.896 401.281 79.896C401.537 79.896 401.745 79.976 401.905 80.136C402.076 80.296 402.161 80.504 402.161 80.76C402.161 81.0267 402.076 81.24 401.905 81.4C401.745 81.5493 401.537 81.624 401.281 81.624ZM404.77 91V84.296H403.714V83.304L404.77 83.224V81.992C404.77 81.2027 404.952 80.5787 405.314 80.12C405.688 79.6507 406.264 79.416 407.042 79.416C407.288 79.416 407.522 79.4427 407.746 79.496C407.97 79.5387 408.168 79.5973 408.338 79.672L408.05 80.68C407.762 80.552 407.469 80.488 407.17 80.488C406.445 80.488 406.082 80.9893 406.082 81.992V83.224H407.73V84.296H406.082V91H404.77ZM409.346 94.344C409.176 94.344 409.01 94.328 408.85 94.296C408.701 94.264 408.562 94.2267 408.434 94.184L408.69 93.144C408.776 93.1653 408.872 93.1867 408.978 93.208C409.085 93.24 409.186 93.256 409.282 93.256C409.72 93.256 410.082 93.096 410.37 92.776C410.658 92.4667 410.882 92.072 411.042 91.592L411.218 91.016L408.098 83.224H409.458L411.042 87.528C411.16 87.8587 411.282 88.216 411.41 88.6C411.549 88.984 411.677 89.3573 411.794 89.72H411.858C411.976 89.368 412.088 89 412.194 88.616C412.301 88.232 412.408 87.8693 412.514 87.528L413.906 83.224H415.186L412.258 91.64C412.077 92.152 411.858 92.6107 411.602 93.016C411.357 93.4213 411.048 93.7413 410.674 93.976C410.312 94.2213 409.869 94.344 409.346 94.344Z" fill="white"/>
<path d="M568 57C568 52.5817 571.582 49 576 49H727C731.418 49 735 52.5817 735 57V93C735 97.4183 731.418 101 727 101H576C571.582 101 568 97.4183 568 93V57Z" fill="white"/>
<path d="M593.584 80.692C592.709 80.692 591.904 80.4893 591.168 80.084C590.432 79.6787 589.84 79.0813 589.392 78.292C588.955 77.492 588.736 76.5107 588.736 75.348C588.736 74.196 588.96 73.2147 589.408 72.404C589.867 71.5827 590.469 70.9587 591.216 70.532C591.973 70.0947 592.789 69.876 593.664 69.876C594.336 69.876 594.939 70.0147 595.472 70.292C596.005 70.5587 596.448 70.8733 596.8 71.236L595.552 72.74C595.285 72.4947 595.003 72.2973 594.704 72.148C594.416 71.988 594.085 71.908 593.712 71.908C593.243 71.908 592.811 72.0413 592.416 72.308C592.032 72.5747 591.723 72.9587 591.488 73.46C591.264 73.9613 591.152 74.564 591.152 75.268C591.152 76.3347 591.381 77.1667 591.84 77.764C592.299 78.3613 592.912 78.66 593.68 78.66C594.107 78.66 594.485 78.564 594.816 78.372C595.157 78.18 595.456 77.9507 595.712 77.684L596.96 79.156C596.085 80.18 594.96 80.692 593.584 80.692ZM598.353 80.5V69.284H600.705V72.036L600.593 73.46C600.891 73.1933 601.238 72.948 601.633 72.724C602.038 72.4893 602.507 72.372 603.041 72.372C603.905 72.372 604.529 72.66 604.913 73.236C605.307 73.8013 605.505 74.58 605.505 75.572V80.5H603.153V75.876C603.153 75.3 603.073 74.9053 602.913 74.692C602.763 74.4787 602.518 74.372 602.177 74.372C601.878 74.372 601.622 74.4413 601.409 74.58C601.195 74.708 600.961 74.8947 600.705 75.14V80.5H598.353ZM609.493 80.692C608.768 80.692 608.192 80.4627 607.765 80.004C607.338 79.5347 607.125 78.964 607.125 78.292C607.125 77.46 607.477 76.8093 608.181 76.34C608.885 75.8707 610.021 75.556 611.589 75.396C611.568 75.044 611.461 74.7667 611.269 74.564C611.088 74.3507 610.778 74.244 610.341 74.244C610.01 74.244 609.674 74.308 609.333 74.436C608.992 74.564 608.629 74.74 608.245 74.964L607.397 73.412C607.898 73.1027 608.432 72.852 608.997 72.66C609.573 72.468 610.17 72.372 610.789 72.372C611.802 72.372 612.581 72.6653 613.125 73.252C613.669 73.8387 613.941 74.74 613.941 75.956V80.5H612.021L611.861 79.684H611.797C611.466 79.9827 611.109 80.228 610.725 80.42C610.352 80.6013 609.941 80.692 609.493 80.692ZM610.293 78.868C610.56 78.868 610.789 78.8093 610.981 78.692C611.184 78.564 611.386 78.3987 611.589 78.196V76.804C610.757 76.9107 610.181 77.0813 609.861 77.316C609.541 77.54 609.381 77.8067 609.381 78.116C609.381 78.372 609.461 78.564 609.621 78.692C609.792 78.8093 610.016 78.868 610.293 78.868ZM615.931 80.5V72.564H617.851L618.011 73.956H618.075C618.363 73.4227 618.709 73.028 619.115 72.772C619.52 72.5053 619.925 72.372 620.331 72.372C620.555 72.372 620.741 72.388 620.891 72.42C621.04 72.4413 621.168 72.4787 621.275 72.532L620.891 74.564C620.752 74.5213 620.613 74.4893 620.475 74.468C620.347 74.4467 620.197 74.436 620.027 74.436C619.728 74.436 619.413 74.548 619.083 74.772C618.763 74.9853 618.496 75.3587 618.283 75.892V80.5H615.931ZM624.981 83.876C624.363 83.876 623.803 83.8067 623.301 83.668C622.8 83.5293 622.4 83.3107 622.101 83.012C621.803 82.7133 621.653 82.3293 621.653 81.86C621.653 81.22 622.032 80.6867 622.789 80.26V80.196C622.587 80.0573 622.411 79.8813 622.261 79.668C622.123 79.4547 622.053 79.1827 622.053 78.852C622.053 78.564 622.139 78.2867 622.309 78.02C622.48 77.7533 622.693 77.5347 622.949 77.364V77.3C622.672 77.108 622.421 76.8307 622.197 76.468C621.984 76.1053 621.877 75.6947 621.877 75.236C621.877 74.596 622.032 74.068 622.341 73.652C622.651 73.2253 623.056 72.9053 623.557 72.692C624.059 72.4787 624.592 72.372 625.157 72.372C625.627 72.372 626.037 72.436 626.389 72.564H629.285V74.276H628.021C628.096 74.3933 628.155 74.5427 628.197 74.724C628.251 74.9053 628.277 75.1027 628.277 75.316C628.277 75.924 628.139 76.4253 627.861 76.82C627.584 77.2147 627.211 77.508 626.741 77.7C626.272 77.892 625.744 77.988 625.157 77.988C624.848 77.988 624.528 77.9347 624.197 77.828C624.005 77.988 623.909 78.1853 623.909 78.42C623.909 78.6227 624 78.772 624.181 78.868C624.363 78.964 624.672 79.012 625.109 79.012H626.389C627.371 79.012 628.117 79.172 628.629 79.492C629.152 79.8013 629.413 80.3133 629.413 81.028C629.413 81.572 629.232 82.0573 628.869 82.484C628.507 82.9213 627.995 83.2627 627.333 83.508C626.672 83.7533 625.888 83.876 624.981 83.876ZM625.157 76.564C625.467 76.564 625.723 76.452 625.925 76.228C626.139 76.004 626.245 75.6733 626.245 75.236C626.245 74.82 626.139 74.5053 625.925 74.292C625.723 74.068 625.467 73.956 625.157 73.956C624.848 73.956 624.587 74.0627 624.373 74.276C624.171 74.4893 624.069 74.8093 624.069 75.236C624.069 75.6733 624.171 76.004 624.373 76.228C624.587 76.452 624.848 76.564 625.157 76.564ZM625.349 82.404C625.883 82.404 626.32 82.308 626.661 82.116C627.003 81.924 627.173 81.6947 627.173 81.428C627.173 81.1827 627.067 81.0173 626.853 80.932C626.651 80.8467 626.352 80.804 625.957 80.804H625.141C624.875 80.804 624.651 80.7933 624.469 80.772C624.299 80.7613 624.149 80.74 624.021 80.708C623.733 80.964 623.589 81.2253 623.589 81.492C623.589 81.7907 623.749 82.0147 624.069 82.164C624.4 82.324 624.827 82.404 625.349 82.404ZM633.967 80.692C633.21 80.692 632.527 80.5267 631.919 80.196C631.311 79.8653 630.831 79.3907 630.479 78.772C630.127 78.1533 629.951 77.4067 629.951 76.532C629.951 75.668 630.127 74.9267 630.479 74.308C630.842 73.6893 631.311 73.2147 631.887 72.884C632.463 72.5427 633.066 72.372 633.695 72.372C634.452 72.372 635.076 72.5427 635.567 72.884C636.068 73.2147 636.442 73.668 636.687 74.244C636.943 74.8093 637.071 75.4547 637.071 76.18C637.071 76.3827 637.06 76.5853 637.039 76.788C637.018 76.98 636.996 77.124 636.975 77.22H632.223C632.33 77.796 632.57 78.2227 632.943 78.5C633.316 78.7667 633.764 78.9 634.287 78.9C634.852 78.9 635.423 78.724 635.999 78.372L636.783 79.796C636.378 80.0733 635.924 80.292 635.423 80.452C634.922 80.612 634.436 80.692 633.967 80.692ZM632.207 75.668H635.071C635.071 75.2307 634.964 74.8733 634.751 74.596C634.548 74.308 634.212 74.164 633.743 74.164C633.38 74.164 633.055 74.292 632.767 74.548C632.479 74.7933 632.292 75.1667 632.207 75.668ZM644.731 83.876C644.113 83.876 643.553 83.8067 643.051 83.668C642.55 83.5293 642.15 83.3107 641.851 83.012C641.553 82.7133 641.403 82.3293 641.403 81.86C641.403 81.22 641.782 80.6867 642.539 80.26V80.196C642.337 80.0573 642.161 79.8813 642.011 79.668C641.873 79.4547 641.803 79.1827 641.803 78.852C641.803 78.564 641.889 78.2867 642.059 78.02C642.23 77.7533 642.443 77.5347 642.699 77.364V77.3C642.422 77.108 642.171 76.8307 641.947 76.468C641.734 76.1053 641.627 75.6947 641.627 75.236C641.627 74.596 641.782 74.068 642.091 73.652C642.401 73.2253 642.806 72.9053 643.307 72.692C643.809 72.4787 644.342 72.372 644.907 72.372C645.377 72.372 645.787 72.436 646.139 72.564H649.035V74.276H647.771C647.846 74.3933 647.905 74.5427 647.947 74.724C648.001 74.9053 648.027 75.1027 648.027 75.316C648.027 75.924 647.889 76.4253 647.611 76.82C647.334 77.2147 646.961 77.508 646.491 77.7C646.022 77.892 645.494 77.988 644.907 77.988C644.598 77.988 644.278 77.9347 643.947 77.828C643.755 77.988 643.659 78.1853 643.659 78.42C643.659 78.6227 643.75 78.772 643.931 78.868C644.113 78.964 644.422 79.012 644.859 79.012H646.139C647.121 79.012 647.867 79.172 648.379 79.492C648.902 79.8013 649.163 80.3133 649.163 81.028C649.163 81.572 648.982 82.0573 648.619 82.484C648.257 82.9213 647.745 83.2627 647.083 83.508C646.422 83.7533 645.638 83.876 644.731 83.876ZM644.907 76.564C645.217 76.564 645.473 76.452 645.675 76.228C645.889 76.004 645.995 75.6733 645.995 75.236C645.995 74.82 645.889 74.5053 645.675 74.292C645.473 74.068 645.217 73.956 644.907 73.956C644.598 73.956 644.337 74.0627 644.123 74.276C643.921 74.4893 643.819 74.8093 643.819 75.236C643.819 75.6733 643.921 76.004 644.123 76.228C644.337 76.452 644.598 76.564 644.907 76.564ZM645.099 82.404C645.633 82.404 646.07 82.308 646.411 82.116C646.753 81.924 646.923 81.6947 646.923 81.428C646.923 81.1827 646.817 81.0173 646.603 80.932C646.401 80.8467 646.102 80.804 645.707 80.804H644.891C644.625 80.804 644.401 80.7933 644.219 80.772C644.049 80.7613 643.899 80.74 643.771 80.708C643.483 80.964 643.339 81.2253 643.339 81.492C643.339 81.7907 643.499 82.0147 643.819 82.164C644.15 82.324 644.577 82.404 645.099 82.404ZM652.83 80.692C651.966 80.692 651.337 80.4093 650.942 79.844C650.558 79.268 650.366 78.484 650.366 77.492V72.564H652.718V77.188C652.718 77.7533 652.798 78.148 652.958 78.372C653.118 78.5853 653.369 78.692 653.71 78.692C654.009 78.692 654.26 78.6227 654.462 78.484C654.665 78.3453 654.884 78.1213 655.118 77.812V72.564H657.47V80.5H655.55L655.374 79.396H655.326C654.996 79.7907 654.633 80.1053 654.238 80.34C653.844 80.5747 653.374 80.692 652.83 80.692ZM663.092 80.692C662.335 80.692 661.652 80.5267 661.044 80.196C660.436 79.8653 659.956 79.3907 659.604 78.772C659.252 78.1533 659.076 77.4067 659.076 76.532C659.076 75.668 659.252 74.9267 659.604 74.308C659.967 73.6893 660.436 73.2147 661.012 72.884C661.588 72.5427 662.191 72.372 662.82 72.372C663.577 72.372 664.201 72.5427 664.692 72.884C665.193 73.2147 665.567 73.668 665.812 74.244C666.068 74.8093 666.196 75.4547 666.196 76.18C666.196 76.3827 666.185 76.5853 666.164 76.788C666.143 76.98 666.121 77.124 666.1 77.22H661.348C661.455 77.796 661.695 78.2227 662.068 78.5C662.441 78.7667 662.889 78.9 663.412 78.9C663.977 78.9 664.548 78.724 665.124 78.372L665.908 79.796C665.503 80.0733 665.049 80.292 664.548 80.452C664.047 80.612 663.561 80.692 663.092 80.692ZM661.332 75.668H664.196C664.196 75.2307 664.089 74.8733 663.876 74.596C663.673 74.308 663.337 74.164 662.868 74.164C662.505 74.164 662.18 74.292 661.892 74.548C661.604 74.7933 661.417 75.1667 661.332 75.668ZM670.157 80.692C669.635 80.692 669.096 80.5907 668.541 80.388C667.997 80.1853 667.523 79.9187 667.117 79.588L668.173 78.116C668.536 78.3827 668.883 78.5907 669.213 78.74C669.555 78.8787 669.891 78.948 670.221 78.948C670.573 78.948 670.829 78.8893 670.989 78.772C671.149 78.644 671.229 78.4787 671.229 78.276C671.229 78.0947 671.149 77.9453 670.989 77.828C670.84 77.7107 670.643 77.604 670.397 77.508C670.152 77.4013 669.891 77.2947 669.613 77.188C669.293 77.06 668.973 76.9 668.653 76.708C668.344 76.516 668.083 76.2707 667.869 75.972C667.656 75.6627 667.549 75.2893 667.549 74.852C667.549 74.116 667.827 73.5187 668.381 73.06C668.947 72.6013 669.683 72.372 670.589 72.372C671.197 72.372 671.731 72.4787 672.189 72.692C672.659 72.8947 673.059 73.124 673.389 73.38L672.333 74.788C672.056 74.5747 671.779 74.4093 671.501 74.292C671.224 74.1747 670.947 74.116 670.669 74.116C670.061 74.116 669.757 74.324 669.757 74.74C669.757 74.996 669.907 75.1933 670.205 75.332C670.515 75.46 670.872 75.5987 671.277 75.748C671.619 75.8653 671.949 76.02 672.269 76.212C672.6 76.3933 672.872 76.6387 673.085 76.948C673.309 77.2467 673.421 77.6413 673.421 78.132C673.421 78.8467 673.144 79.4547 672.589 79.956C672.035 80.4467 671.224 80.692 670.157 80.692ZM677.659 80.692C676.677 80.692 675.973 80.4093 675.547 79.844C675.131 79.2787 674.923 78.5373 674.923 77.62V74.404H673.835V72.66L675.051 72.564L675.323 70.452H677.275V72.564H679.179V74.404H677.275V77.588C677.275 78.036 677.365 78.3613 677.547 78.564C677.739 78.756 677.989 78.852 678.299 78.852C678.427 78.852 678.555 78.836 678.683 78.804C678.821 78.772 678.944 78.7347 679.051 78.692L679.419 80.404C679.216 80.468 678.965 80.532 678.667 80.596C678.379 80.66 678.043 80.692 677.659 80.692ZM687.387 80.692C686.651 80.692 685.984 80.532 685.387 80.212C684.8 79.8813 684.331 79.4067 683.979 78.788C683.637 78.1587 683.467 77.4067 683.467 76.532C683.467 75.6467 683.659 74.8947 684.043 74.276C684.427 73.6573 684.933 73.188 685.563 72.868C686.192 72.5373 686.869 72.372 687.595 72.372C688.085 72.372 688.517 72.452 688.891 72.612C689.275 72.772 689.616 72.9747 689.915 73.22L688.811 74.74C688.437 74.4307 688.08 74.276 687.739 74.276C687.173 74.276 686.72 74.4787 686.379 74.884C686.048 75.2893 685.883 75.8387 685.883 76.532C685.883 77.2147 686.048 77.764 686.379 78.18C686.72 78.5853 687.147 78.788 687.659 78.788C687.915 78.788 688.165 78.7347 688.411 78.628C688.656 78.5107 688.88 78.372 689.083 78.212L690.011 79.748C689.616 80.0893 689.189 80.3347 688.731 80.484C688.272 80.6227 687.824 80.692 687.387 80.692ZM693.243 80.692C692.518 80.692 691.942 80.4627 691.515 80.004C691.088 79.5347 690.875 78.964 690.875 78.292C690.875 77.46 691.227 76.8093 691.931 76.34C692.635 75.8707 693.771 75.556 695.339 75.396C695.318 75.044 695.211 74.7667 695.019 74.564C694.838 74.3507 694.528 74.244 694.091 74.244C693.76 74.244 693.424 74.308 693.083 74.436C692.742 74.564 692.379 74.74 691.995 74.964L691.147 73.412C691.648 73.1027 692.182 72.852 692.747 72.66C693.323 72.468 693.92 72.372 694.539 72.372C695.552 72.372 696.331 72.6653 696.875 73.252C697.419 73.8387 697.691 74.74 697.691 75.956V80.5H695.771L695.611 79.684H695.547C695.216 79.9827 694.859 80.228 694.475 80.42C694.102 80.6013 693.691 80.692 693.243 80.692ZM694.043 78.868C694.31 78.868 694.539 78.8093 694.731 78.692C694.934 78.564 695.136 78.3987 695.339 78.196V76.804C694.507 76.9107 693.931 77.0813 693.611 77.316C693.291 77.54 693.131 77.8067 693.131 78.116C693.131 78.372 693.211 78.564 693.371 78.692C693.542 78.8093 693.766 78.868 694.043 78.868ZM699.681 80.5V72.564H701.601L701.761 73.956H701.825C702.113 73.4227 702.459 73.028 702.865 72.772C703.27 72.5053 703.675 72.372 704.081 72.372C704.305 72.372 704.491 72.388 704.641 72.42C704.79 72.4413 704.918 72.4787 705.025 72.532L704.641 74.564C704.502 74.5213 704.363 74.4893 704.225 74.468C704.097 74.4467 703.947 74.436 703.777 74.436C703.478 74.436 703.163 74.548 702.833 74.772C702.513 74.9853 702.246 75.3587 702.033 75.892V80.5H699.681ZM708.731 80.692C707.75 80.692 706.961 80.324 706.363 79.588C705.777 78.8413 705.483 77.8227 705.483 76.532C705.483 75.668 705.638 74.9267 705.947 74.308C706.267 73.6787 706.678 73.1987 707.179 72.868C707.691 72.5373 708.225 72.372 708.779 72.372C709.217 72.372 709.585 72.4467 709.883 72.596C710.182 72.7453 710.465 72.948 710.731 73.204L710.635 71.988V69.284H712.987V80.5H711.067L710.907 79.716H710.843C710.566 79.9933 710.241 80.228 709.867 80.42C709.494 80.6013 709.115 80.692 708.731 80.692ZM709.339 78.772C709.595 78.772 709.825 78.7187 710.027 78.612C710.241 78.5053 710.443 78.3187 710.635 78.052V74.804C710.433 74.612 710.214 74.4787 709.979 74.404C709.755 74.3293 709.537 74.292 709.323 74.292C708.95 74.292 708.619 74.4733 708.331 74.836C708.043 75.188 707.899 75.7427 707.899 76.5C707.899 77.2787 708.022 77.8547 708.267 78.228C708.523 78.5907 708.881 78.772 709.339 78.772Z" fill="#333333"/>
</g>
<defs>
<filter id="filter0_dd_420_41117" x="0" y="0" width="767" height="147" filterUnits="userSpaceOnUse" color-interpolation-filters="sRGB">
<feFlood flood-opacity="0" result="BackgroundImageFix"/>
<feColorMatrix in="SourceAlpha" type="matrix" values="0 0 0 0 0 0 0 0 0 0 0 0 0 0 0 0 0 0 127 0" result="hardAlpha"/>
<feOffset dy="7"/>
<feGaussianBlur stdDeviation="8"/>
<feComposite in2="hardAlpha" operator="out"/>
<feColorMatrix type="matrix" values="0 0 0 0 0.266667 0 0 0 0 0.266667 0 0 0 0 0.266667 0 0 0 0.03 0"/>
<feBlend mode="normal" in2="BackgroundImageFix" result="effect1_dropShadow_420_41117"/>
<feColorMatrix in="SourceAlpha" type="matrix" values="0 0 0 0 0 0 0 0 0 0 0 0 0 0 0 0 0 0 127 0" result="hardAlpha"/>
<feOffset dy="1"/>
<feGaussianBlur stdDeviation="1"/>
<feComposite in2="hardAlpha" operator="out"/>
<feColorMatrix type="matrix" values="0 0 0 0 0.266667 0 0 0 0 0.266667 0 0 0 0 0.266667 0 0 0 0.15 0"/>
<feBlend mode="normal" in2="effect1_dropShadow_420_41117" result="effect2_dropShadow_420_41117"/>
<feBlend mode="normal" in="SourceGraphic" in2="effect2_dropShadow_420_41117" result="shape"/>
</filter>
</defs>
</svg>